<svg xmlns="http://www.w3.org/2000/svg" viewBox="0 0 640 1000"><path d="M520 730q50 0 85 35t35 85-35 85-85 35q-80 0-110-74H246q-88 0-131-54T72 724V260Q0 226 0 150q0-50 35-85t85-35 85 35 35 85q0 76-72 110v114q0 78 78 78h164q30-72 110-72 50 0 85 35t35 85-35 85-85 35q-80 0-110-74H246q-42 0-78-16v194q0 78 78 78h164q30-72 110-72zm0-300q-28 0-49 20t-21 50q0 28 21 48t49 20 49-20 21-48q0-30-21-50t-49-20zM50 150q0 28 21 48t49 20 49-20 21-48q0-30-21-50t-49-20-49 20-21 50zm470 768q28 0 49-20t21-48q0-30-21-50t-49-20-49 20-21 50q0 28 21 48t49 20z"/></svg>