<svg xmlns="http://www.w3.org/2000/svg" viewBox="0 0 940 1000"><path d="M868 738q72 34 72 112 0 50-35 85t-85 35-85-35-35-85q0-78 72-112V624q0-78-76-78H596q-44 0-78-12v204q72 34 72 112 0 50-35 85t-85 35-85-35-35-85q0-78 72-112V534q-30 12-76 12H246q-34 0-53 19t-22 33-3 26v114q72 34 72 112 0 50-35 85t-85 35-85-35-35-85q0-78 72-112V624q0-64 43-118t131-54h100q76 0 76-52V260q-72-34-72-110 0-50 35-85t85-35 85 35 35 85q0 76-72 110v140q0 52 78 52h100q86 0 129 54t43 118v114zM190 850q0-30-21-50t-49-20-48 20-20 50q0 28 20 48t48 20 49-20 21-48zm212-700q0 28 20 48t48 20 49-20 21-48q0-30-21-50t-49-20-48 20-20 50zm138 700q0-30-21-50t-49-20-48 20-20 50q0 28 20 48t48 20 49-20 21-48zm280 68q28 0 49-20t21-48q0-30-21-50t-49-20-48 20-20 50q0 28 20 48t48 20z"/></svg>