<?xml version="1.0" encoding="UTF-8"?><svg xmlns="http://www.w3.org/2000/svg" version="1.1" style="position: absolute; width: 0; height: 0; overflow: hidden;"><defs><symbol viewBox="0 0 960 1000" id="twitter-circled"><path d="M480 20q200 0 340 140t140 340q0 198-140 339T480 980q-198 0-339-141T0 500q0-200 141-340T480 20zm196 392q30-22 46-48-32 12-54 14 30-18 42-52-30 16-60 22-28-28-70-28-40 0-67 28t-27 66q0 2 1 10t1 12q-120-6-194-100-14 24-14 48 0 50 44 78-26 0-44-12v2q0 34 21 60t55 32q-16 4-24 4-12 0-18-2 20 66 88 66-50 40-118 40h-22q68 42 144 42 122 0 196-83t74-187v-12z"></path></symbol><symbol viewBox="0 0 1000 1000" id="adjust"><path d="M950 460q20 0 35 12t15 28q0 40-50 40h-48q-50 0-50-40 0-16 15-28t35-12h48zM500 226q114 0 195 80t81 194q0 116-81 196t-195 80-194-80-80-196q0-114 80-194t194-80zm6 474V300q-86 0-146 59t-60 141q0 84 60 142t146 58zM150 500q0 40-50 40H50q-50 0-50-40 0-16 15-28t35-12h50q20 0 35 12t15 28zm350-350q-16 0-28-15t-12-35V50q0-20 12-35t28-15 28 15 12 35v50q0 20-12 35t-28 15zm0 700q16 0 28 15t12 35v50q0 20-12 35t-28 15-28-15-12-35v-50q0-20 12-35t28-15zm368-660l-34 34q-34 34-64 8-28-28 8-64 4-6 34-36 36-34 64-6t-8 64zM168 778q14-16 33-18t29 10q12 12 10 31t-16 33l-36 36q-14 14-33 16t-29-10q-30-28 6-64 6-4 36-34zm20-646l36 36q36 36 6 64-10 10-29 8t-33-16q-30-30-36-34-14-14-16-33t10-31q10-12 29-10t33 16zm590 702q-36-36-8-64t64 8l34 34q36 36 8 64t-64-6q-30-30-34-36z"></path></symbol><symbol viewBox="0 0 760 1000" id="trash"><path d="M50 392q122 70 330 70t330-70l-54 486q-2 14-35 36t-100 43-141 21-140-21-100-43-36-36zM538 92q94 18 158 55t64 71v10q0 58-112 99t-268 41-268-41T0 228v-10q0-34 64-71t158-55l42-48q22-26 70-26h92q52 0 70 26zm-54 112h84Q476 94 464 78q-14-16-32-16H330q-22 0-32 16L192 204h84l64-66h82z"></path></symbol><symbol viewBox="0 0 910 1000" id="sound"><path d="M176 262q42-42 149 5t217 157 157 217 5 149q-28 28-92 67t-156 78-194 29-176-84T2 704t29-194 78-156 67-92zm464 480q8-10-3-49t-49-101-96-118q-56-58-118-96t-101-49-49-3q-8 10 3 49t49 101 94 120q58 56 120 94t101 49 49 3zm6-394q-18 0-34-16-16-14-16-35t16-35l94-96q36-32 72 0 32 36 0 72l-96 94q-16 16-36 16zM466 224q-18-10-23-30t5-38l54-96q26-44 68-20 18 10 23 30t-5 38l-54 96q-14 26-42 26-14 0-26-6zm438 150q10 18 4 38t-24 30l-96 54q-16 8-24 8-28 0-44-26-10-18-4-38t24-30l96-54q18-10 38-5t30 23z"></path></symbol><symbol viewBox="0 0 600 1000" id="stop"><path d="M526 200q74 0 74 64v470q0 66-74 66H76q-76 0-76-66V264q0-36 18-50t58-14h450z"></path></symbol><symbol viewBox="0 0 760 1000" id="down-bold"><path d="M760 484L380 864 0 484h192V134h376v350h192z"></path></symbol><symbol viewBox="0 0 920 1000" id="down-circled"><path d="M460 40q190 0 325 135t135 325-135 325-325 135-325-135T0 500t135-325T460 40zm0 820q148 0 254-106t106-254q0-150-106-255T460 140 206 245 100 500q0 148 106 254t254 106zm90-554v206h112L460 702 258 512h112V306h180z"></path></symbol><symbol viewBox="0 0 1000 1000" id="window"><path d="M900 100q42 0 71 30t29 70v600q0 42-29 71t-71 29H100q-40 0-70-29T0 800V200q0-40 30-70t70-30h800zm-670 94q-16 0-27 11t-11 25q0 16 11 27t27 11q38 0 38-38 0-16-11-26t-27-10zM92 230q0 16 11 27t27 11q38 0 38-38 0-16-11-26t-27-10-27 11-11 25zm810 570V340H100v460h802zm0-540v-60H300v60h602z"></path></symbol><symbol viewBox="0 0 1000 1000" id="map"><path d="M984 250q16 10 16 30v584q0 20-16 30-8 6-16 6t-18-6L734 758 518 894q-18 10-34 0L266 758 50 894q-16 10-34 0-16-10-16-30V280q0-20 16-30l234-146q18-10 34 0l216 136 218-136q16-10 32 0zM234 700V194L66 298v506zm234 104V298L300 194v506zm234-104V194L532 298v506zm232 104V298L766 194v506z"></path></symbol><symbol viewBox="0 0 340 1000" id="right-open"><path d="M98 224l226 236q16 16 16 40 0 22-16 38L98 774q-16 16-40 16t-40-16q-36-36 0-80l186-194L18 304q-36-44 0-80 16-16 41-16t39 16z"></path></symbol><symbol viewBox="0 0 540 1000" id="thermometer"><path d="M400 494q64 36 102 98t38 138q0 112-79 191t-191 79-191-79T0 730q0-76 38-138t102-98V50q0-50 40-50h170q20 0 35 15t15 35v444zM270 900q70 0 120-50t50-120q0-56-32-100t-84-60V200H224v368q-54 16-89 61t-35 101q0 70 50 120t120 50z"></path></symbol><symbol viewBox="0 0 999 1000" id="inbox"><path d="M967 452q40 42 30 72l-28 154q-4 20-22 33t-40 13H91q-22 0-40-13t-22-33L1 524q-8-32 32-72 8-10 36-38t68-67 52-51q22-22 52-22h516q30 0 52 22 16 16 53 52t67 65 38 39zm-266 32h178L777 370H221L119 484h178q8 0 12 8l40 100h300l40-100q4-8 12-8z"></path></symbol><symbol viewBox="0 0 744 1000" id="level-down"><path d="M100 650q-42 0-71-30T0 550V200h140v310h364V360l240 220-240 220V650H100z"></path></symbol><symbol viewBox="0 0 996 1000" id="sina-weibo"><path d="M732 502q118 38 118 136 0 102-127 197t-313 95q-160 0-285-78T0 656q0-130 146-280 92-92 186-129t134 3q36 36 10 116-4 14 8 14l16-2q74-34 134-34t84 34q24 36-2 100-6 18 16 24zM410 856q122-12 202-77t72-145q-10-80-100-128t-212-36-202 77-70 145q8 80 98 128t212 36zm586-488v2q0 14-11 24t-25 10-24-10-10-24q0-96-68-163t-162-67q-16 0-26-10t-10-26q0-34 36-34 124 0 212 87t88 211zm-140-4q4 14-4 27t-22 15q-34 4-42-28-8-38-36-66t-66-36q-34-8-26-40 8-36 42-28 58 12 100 55t54 101zM328 574q48-10 88 12t48 62q10 40-19 77t-79 45q-48 10-88-12t-48-62 20-76 78-46z"></path></symbol><symbol viewBox="0 0 1000 1000" id="suitcase"><path d="M900 200q42 0 71 30t29 70v550q0 42-29 71t-71 29h-50V200h50zM0 300q0-40 30-70t70-30h50v750h-50q-40 0-70-29T0 850V300zM670 96v104h110v750H220V200h110V96q98-46 170-46t170 46zm-60 104v-66q-52-24-110-24-54 0-110 24v66h220z"></path></symbol><symbol viewBox="0 0 550 1000" id="bookmarks"><path d="M500 0q20 0 35 15t15 35v850L400 720V100q0-20-15-35t-35-15H250q0-50 40-50h210zM250 150q20 0 35 15t15 35v800L150 820 0 1000V200q0-50 40-50h210z"></path></symbol><symbol viewBox="0 0 1000 1000" id="battery"><path d="M770 500q0 98 36 157t78 59h66q-30 46-64 65t-118 19H268q-130 0-199-94T0 500q0-110 69-205t199-95h500q84 0 118 19t64 65h-66q-42 0-78 60t-36 156zm-136 90q10-12-8-26-136-134-178-164-16-10-26-13t-18 5-10 12-8 18l-22 56-148-66q-26-12-34 0-8 14 8 28 136 132 180 162 34 16 42 11t18-31l24-58 146 68q26 12 34-2zm310-192q22 0 39 27t17 71-17 72-39 28h-38q-22 0-38-28t-16-72 16-71 38-27h38z"></path></symbol><symbol viewBox="0 0 1000 1000" id="cloud"><path d="M760 356q100 0 170 68t70 166-70 166-170 68H182q-74 0-128-52T0 648q0-74 53-126t129-52q2 0 10 1t10 1q-2-12-2-38 0-108 78-184t188-76q90 0 160 52t94 134q28-4 40-4z"></path></symbol><symbol viewBox="0 0 560 1000" id="tumblr"><path d="M560 908q-48 26-106 40-48 12-102 12-58 0-110-16-54-20-82-46-36-32-46-64-14-30-14-96V416H0V286q54-18 92-50t62-80q24-52 30-116h130v232h216v144H314v236q0 84 8 102 10 24 32 36 28 20 68 20 68 0 138-46v144z"></path></symbol><symbol viewBox="0 0 1001 1000" id="folder"><path d="M954 350q32 0 40 12t6 36l-42 452q-2 24-12 37t-42 13H98q-52 0-56-50L0 398q-2-24 6-36t40-12h908zm-34-110l10 40H84l14-132q4-20 20-34t36-14h164q52 0 86 34l30 30q32 36 86 36h340q20 0 38 12t22 28z"></path></symbol><symbol viewBox="0 0 700 1000" id="book"><path d="M682 256q18 8 18 28v562q0 14-12 25t-28 11q-46 0-46-36V324q0-12-12-18L198 90q-32-10-68 10-44 20-56 44l408 228q18 8 18 28v550q0 22-18 28-6 4-16 4-14 0-20-4-8-6-202-127T32 720Q6 702 6 686L0 162q0-28 14-52 28-46 102-77t116-9z"></path></symbol><symbol viewBox="0 0 766 1000" id="evernote"><path d="M750 214q0 4 5 73t9 144-1 171-19 171-51 126-91 51q-154 0-194-26-26-20-18-130 2-40 37-59t69-19l34 2-4 70q-12 2-38 2-20 0-24 26-4 38 40 42l86-4q38-4 28-136-2-16-18-26t-34-13-49-8-47-9q-28-8-46-28t-27-37-11-17-8 58-30 58q-44 0-139-15T94 646q-34-34-62-149T4 346q0-34 58-30h116q78 0 78-72 0-12-1-52t-1-60q0-82 40-82 90 0 120 14 18 8 29 26t13 34l4 14 202 12q10 0 25 3t39 19 24 42zm-96 302q6-6-2-32t-29-52-49-26-45 23-21 46 0 29q8 6 15 5t26-5 31-4q14 0 31 6t28 10 15 0zM172 208q0 22-28 22H0L176 58q-4 138-4 150z"></path></symbol><symbol viewBox="0 0 1000 1000" id="list-add"><path d="M350 450q22 0 36 15t14 35-15 35-35 15H50q-20 0-35-15T0 500t14-35 36-15h300zm0 200q22 0 36 15t14 35-15 35-35 15H50q-20 0-35-15T0 700t14-35 36-15h300zm620-200q30 0 30 50t-30 50H800v170q0 30-50 30t-50-30V550H536q-30 0-30-50t30-50h164V280q0-30 50-30t50 30v170h170zM350 250q22 0 36 15t14 35-15 35-35 15H50q-20 0-35-15T0 300t14-35 36-15h300z"></path></symbol><symbol viewBox="0 0 900 1000" id="loop"><path d="M800 310q42 0 71 29t29 71v290q0 40-29 70t-71 30H100q-40 0-70-30T0 700V410q0-42 30-71t70-29h250V200l200 180-200 180V450H140v210h620V450H610V310h190z"></path></symbol><symbol viewBox="0 0 900 1000" id="mail"><path d="M30 264q-32-18-28-40 2-14 26-14h846q38 0 20 32-8 14-24 22-14 6-192 102t-182 98q-16 10-46 10-28 0-46-10-4-2-182-98T30 264zm850 100q20-10 20 10v368q0 16-17 32t-33 16H50q-16 0-33-16T0 742V374q0-20 20-10l384 200q18 10 46 10t46-10z"></path></symbol><symbol viewBox="0 0 800 1000" id="popup"><path d="M700 100q42 0 71 29t29 71v400q0 40-29 70t-71 30H300q-40 0-70-30t-30-70V198q0-40 29-69t71-29h400zm0 500V200H300v400h400zM100 500v300h300v100H100q-40 0-70-30T0 800V500h100z"></path></symbol><symbol viewBox="0 0 700 1000" id="doc-text"><path d="M212 542v-90h280v90H212zM600 50q42 0 71 29t29 71v700q0 40-29 70t-71 30H100q-40 0-70-30T0 850V150q0-42 30-71t70-29h500zm0 800V150H100v700h500zM490 258v88H210v-88h280zm0 392v88H210v-88h280z"></path></symbol><symbol viewBox="0 0 500 1000" id="play"><path d="M486 474q14 10 14 26 0 14-14 24L58 790q-24 16-41 6T0 756V242q0-30 17-40t41 6z"></path></symbol><symbol viewBox="0 0 1000 1000" id="tape"><path d="M770 270q96 0 163 67t67 163q0 94-67 162t-163 68H230q-94 0-162-68T0 500q0-96 68-163t162-67q96 0 163 67t67 163q0 72-40 130h160q-40-64-40-130 0-96 68-163t162-67zM100 500q0 52 38 91t92 39 92-39 38-91q0-54-38-92t-92-38-92 38-38 92zm670 130q54 0 92-39t38-91q0-54-38-92t-92-38-92 38-38 92q0 52 38 91t92 39z"></path></symbol><symbol viewBox="0 0 1000 1000" id="user-add"><path d="M620 722q180 64 180 122v106H0V748q36-14 82-26 94-34 129-69t35-95q0-22-23-48t-31-74q-2-12-23-25t-25-61q0-16 5-26t9-12l4-4q-8-50-12-88-6-54 40-112t160-58 160 58 42 112l-14 88q18 8 18 42-2 28-9 43t-14 17-14 8-9 18q-10 46-33 73t-23 49q0 60 36 95t130 69zm230-272h150v100H850v150H750V550H600V450h150V300h100v150z"></path></symbol><symbol viewBox="0 0 900 1000" id="flickr"><path d="M196 700q-80 0-138-59T0 500q0-84 57-142t139-58 139 58 57 142q0 82-58 141t-138 59zm508 0q-80 0-138-59t-58-141q0-84 57-142t139-58 139 58 57 142q0 82-58 141t-138 59z"></path></symbol><symbol viewBox="0 0 561 1000" id="mouse"><path d="M551 720q28 80-17 157T395 988q-94 28-175-9T117 862L11 478q-20-68 6-134t84-106L5 52Q-9 18 19 4q30-18 48 14l98 192q80-22 154 16t102 116zM227 446q28-10 40-36t4-54q-10-28-35-41t-53-5q-28 10-40 36t-4 54q10 28 35 41t53 5z"></path></symbol><symbol viewBox="0 0 700 1000" id="list"><path d="M100 650q20 0 35 15t15 35-15 35-35 15H50q-20 0-35-15T0 700t14-35 36-15h50zm0-200q20 0 35 15t15 35-15 35-35 15H50q-20 0-35-15T0 500t14-35 36-15h50zm0-200q20 0 35 15t15 35-15 35-35 15H50q-20 0-35-15T0 300t14-35 36-15h50zm200 100q-20 0-35-15t-15-35 15-35 35-15h350q22 0 36 15t14 35-15 35-35 15H300zm350 100q22 0 36 15t14 35-15 35-35 15H300q-20 0-35-15t-15-35 15-35 35-15h350zm0 200q22 0 36 15t14 35-15 35-35 15H300q-20 0-35-15t-15-35 15-35 35-15h350z"></path></symbol><symbol viewBox="0 0 980 1000" id="left-thin"><path d="M240 750L0 500l240-250v160h740v178H240v162z"></path></symbol><symbol viewBox="0 0 800 1000" id="thumbs-down"><path d="M218 632q-2-6-57-13T53 595 0 548q0-72 62-285T168 50q144 0 288 43t144 89v342q0 10-8 24t-25 30-32 29-42 32-41 29-41 28l-33 22q-50 34-104 100t-85 104-41 26q-48-76-29-137t59-119 40-60zm432-4q-12 0 2-14 48-50 48-104V192q0-50-52-104-10-10 2-10 26 0 55 8t62 45 33 99v242q0 48-18 81t-45 48-48 21-39 6z"></path></symbol><symbol viewBox="0 0 1003 1000" id="chart-line"><path d="M34 566q-42-10-32-56 10-42 54-32l98 24-52 80zm890 12q14-12 33-11t31 15q32 32-2 64L734 872q-12 12-30 12-14 0-28-10L390 654l-54-14 50-80 36 8q12 4 16 8l264 204zM434 358L84 908q-12 22-38 22-12 0-24-8-16-10-20-29t6-33l374-588q8-16 28-20 18-6 36 6l246 156L918 88q10-16 28-19t34 9q38 24 12 62L740 502q-24 36-62 12z"></path></symbol><symbol viewBox="0 0 920 1000" id="dribbble"><path d="M438 370q-30-54-66-109t-56-84-24-33q-82 40-139 112T76 418q182 0 362-48zm50 132q8-4 14-4-10-28-32-68-182 56-402 56v14q0 150 100 262 4-8 13-21t39-50 64-69 89-66 115-54zM218 808q-2 0-4-2l-4-4zm148-690zm354 86q-114-98-260-98-48 0-92 12 82 108 146 228 138-52 204-140zM460 960q-190 0-325-135T0 500t135-325T460 40t325 135 135 325-135 325-325 135zm68-396q-216 74-308 242l-2 2q110 84 242 84 78 0 154-32-24-140-84-298zm16-158q12 24 26 56 2 2 5 9t5 11q66-8 129-4t101 10 42 8q0-138-88-246l-8 10q-8 10-26 27t-42 36-62 42-82 41zm60 138q52 148 76 280 140-92 168-262-8-4-39-11t-88-12-117 5z"></path></symbol><symbol viewBox="0 0 730 1000" id="right"><path d="M350 170l380 330-380 330V638H0V360h350V170z"></path></symbol><symbol viewBox="0 0 850 1000" id="back"><path d="M750 310q40 0 70 29t30 71v290q0 40-30 70t-70 30H60V660h650V450H210v110L0 380l210-180v110h540z"></path></symbol><symbol viewBox="0 0 900 1000" id="calendar"><path d="M800 150q42 0 71 29t29 71v600q0 40-29 70t-71 30H100q-40 0-70-30T0 850V250q0-42 30-71t70-29h46v100h160V150h290v100h160V150h44zm0 700V450H100v400h700zM260 50v170h-70V50h70zm450 0v170h-70V50h70z"></path></symbol><symbol viewBox="0 0 726 1000" id="logo-db"><path d="M546 610q48 90-4 180-42 70-115 88t-151-26l-64-36-108 184-56-32 206-358q-68 10-134-28L0 512l186-324 122 70q66 40 92 100L606 0l58 34-108 186 64 36q76 44 98 119t-20 143q-48 88-152 92zm44-302l-64-38-124 216q0 2-2 6l62 36q52 30 100 17t76-61 15-97-63-79zM150 530q52 30 100 17t76-61 15-98-63-78l-64-38L86 494zm156 270q52 30 100 17t76-61 14-97-64-79l-62-36-4 4-124 216z"></path></symbol><symbol viewBox="0 0 920 1000" id="github"><path d="M620 564q26 0 45 26t19 64-19 64-45 26q-28 0-47-26t-19-64 19-64 47-26zm226-234q74 80 74 194 0 74-17 133t-43 96-64 65-70 41-73 20-62 8-45 1q-6 0-36 1t-50 1-50-1-36-1q-24 0-45-1t-62-8-73-20-70-41-64-65-43-96T0 524q0-114 74-194-8-4-1-80t33-140q92 10 228 104 46-12 126-12 84 0 126 12 62-42 119-68t83-30l26-6q26 64 33 140t-1 80zM462 844q166 0 251-40t85-164q0-72-54-120-28-26-65-32t-113 0-104 6h-4q-32 0-83-4t-80-5-63 7-56 28q-52 46-52 120 0 124 84 164t250 40h4zM302 564q26 0 45 26t19 64-19 64-45 26q-28 0-47-26t-19-64 19-64 47-26z"></path></symbol><symbol viewBox="0 0 902 1000" id="flashlight"><path d="M807 144q62 62 85 130t-5 92L753 500q-16 16-62 26t-96 4L187 938q-18 18-57 6t-75-50q-36-36-49-74t5-56l408-408q-6-50 4-96t26-62L585 62q24-28 92-4t130 86zM359 552q32 32 80-14 46-46 14-82-14-14-38-10t-44 24-23 43 11 39zm336-298q30 30 68 50t62 25 28 1q2-4-4-27t-26-60-50-67-66-50-59-26-27-2 1 28 25 62 48 66z"></path></symbol><symbol viewBox="0 0 800 1000" id="newspaper"><path d="M700 50q42 0 71 29t29 71v700q0 40-29 70t-71 30H100q-40 0-70-30T0 850V150q0-42 30-71t70-29h600zm0 800V150H100v700h600zM450 600v50H200v-50h250zm150-200v50H400v-50h200zm-200-50V250h200v100H400zm-50-100v200H200V250h150zm-50 250v50H200v-50h100zm50 50v-50h250v50H350zm250 150v50H200v-50h400zm-100-50v-50h100v50H500z"></path></symbol><symbol viewBox="0 0 880 1000" id="star"><path d="M440 60l120 336h320L618 592l94 348-272-208-272 208 94-348L0 396h320z"></path></symbol><symbol viewBox="0 0 700 1000" id="clipboard"><path d="M630 100q28 0 49 21t21 49v760q0 30-21 50t-49 20H70q-28 0-49-20T0 930V170q0-28 21-49t49-21l60 150h440zM530 200H170l-44-100h108L270 0h160l36 100h110z"></path></symbol><symbol viewBox="0 0 792 1000" id="resize-full"><path d="M476 104h316v316L692 296 546 448 446 348l152-146zM246 548l100 100-152 146 122 100H0V578l100 122z"></path></symbol><symbol viewBox="0 0 960 1000" id="cc-pd"><path d="M480 20q200 0 340 140t140 340q0 198-140 339T480 980q-198 0-339-141T0 500q0-200 141-340T480 20zM110 372q-22 62-22 128 0 162 115 277t277 115q110 0 201-55t143-149L400 500q2 54 28 96t76 42q36 0 64-26l6-6 70 84q-4 2-10 7t-8 9q-62 42-136 42-86 0-159-58t-73-188q0-32 6-62zm310 34l440 194q12-48 12-100 0-164-115-278T480 108q-102 0-189 48T150 286l148 66q64-102 196-102 88 0 150 54l-78 80q-8-8-14-12-22-16-52-16-52 0-80 50z"></path></symbol><symbol viewBox="0 0 1000 1000" id="tools"><path d="M155 344q-8 8-11 22t-3 25-2 11q-2 2-17 15t-19 17q-16 14-28-4L5 354q-11-12 2-24 2-2 18-14t20-16q6-6 27-6t37-14q14-14 18-38t10-30q2 0 9-7t26-22 41-31q134-90 186-96 122 0 148 2 12 0-8 8-120 52-152 76-80 56-36 114 34 46 38 48 8 8-2 14-2 2-38 35t-38 35q-14 8-18 4-42-48-71-60t-67 12zm286 26l410 476q18 22-2 38l-48 42q-22 14-38-4L349 450q-8-8 0-20l72-62q12-8 20 2zm554-202q16 104-16 166-50 88-154 62-56-12-100 32l-82 78-68-78 68-70q24-24 31-53t6-65 5-58q12-56 140-112 12-6 18 3t2 15q-12 12-46 80-14 10-12 35t40 53q58 40 96-22 6-12 26-41t22-33q4-10 13-9t11 17zM137 852l254-248 76 86-246 242q-20 20-38 4l-46-46q-22-18 0-38z"></path></symbol><symbol viewBox="0 0 660 1000" id="up"><path d="M660 514H468v350H192V514H0l330-380z"></path></symbol><symbol viewBox="0 0 466 1000" id="down-open-mini"><path d="M405 380q22-26 48 0 26 22 0 48L257 620q-22 22-48 0L13 428q-26-26 0-48 24-24 50 0l170 156z"></path></symbol><symbol viewBox="0 0 921 1000" id="rdio"><path d="M766 448q4 32 4 52 0 160-113 275T384 890q-158 0-271-115T0 500q0-162 112-276t272-114q52 0 90 10v222q-76-26-154 10-70 34-101 101t-5 129q26 60 95 79t139-15q52-26 87-80t35-122V158q16 8 24 14 174 108 310 114 32 2 4 52-42 76-130 106z"></path></symbol><symbol viewBox="0 0 470 1000" id="cancel"><path d="M452 656q18 18 18 43t-18 43q-18 16-43 16t-43-16L234 590 102 742q-18 16-43 16t-43-16Q0 724 0 699t16-43l138-156L16 342Q0 324 0 299t16-43q18-16 43-16t43 16l132 152 132-152q18-16 43-16t43 16q18 18 18 43t-18 43L314 500z"></path></symbol><symbol viewBox="0 0 960 1000" id="cc-nc-jp"><path d="M480 20q200 0 340 140t140 340q0 198-140 339T480 980q-198 0-339-141T0 500q0-200 141-340T480 20zM106 384q-18 54-18 116 0 162 115 277t277 115q106 0 195-52t141-140l-152-68v68H538v108H420V700H296v-74h124v-36l-12-24H296v-74h54zm432 242h112l-106-48-6 12v36zm126-100l192 86q16-58 16-112 0-164-115-278T480 108q-106 0-194 51T146 296l158 70-54-98h128l76 166 46 20 82-186h128L588 492h76v34z"></path></symbol><symbol viewBox="0 0 920 1000" id="lifebuoy"><path d="M454 40q190-2 326 130t140 322q2 190-131 327T466 960q-190 2-327-131T0 506q-4-190 130-327T454 40zm0 60q-94 0-178 44l62 104q56-28 122-28t122 28l62-104q-88-46-190-44zM208 622q-28-60-28-122 0-64 28-124l-102-62q-46 88-46 190 2 96 46 180zm258 278q98-4 178-46l-62-104q-60 30-122 30t-122-30l-62 104q86 46 190 46zm-6-180q92 0 156-65t64-155q0-92-64-156t-156-64-156 64-64 156q0 90 64 155t156 65zm252-98l104 62q46-96 44-190 0-96-44-180l-104 62q28 60 28 124 0 62-28 122z"></path></symbol><symbol viewBox="0 0 560 1000" id="hourglass"><path d="M560 228q0 44-48 96t-97 99-49 77 49 76 97 97 48 97v118q0 34-86 73t-194 39-194-39-86-73V770q0-46 48-97t97-97 49-76-49-77-97-99-48-96V110q0-32 87-71T280 0t193 39 87 71v118zM78 116l-18 14q-4 8 4 14 92 52 216 52 132 0 220-50 14-10-16-30-96-54-202-54-120 0-204 54zm228 384q0-18 4-33t18-33 20-25 31-31 29-28q92-92 92-122l2-50q-100 54-222 54T58 178l4 50q0 32 90 122 6 6 22 21t23 22l19 19 17 21 11 20 9 23 3 24q0 10-1 19t-6 18-8 16-11 17l-12 15-15 16-16 15-18 16-17 16q-90 90-90 122v66q8-4 66-23t92-43 34-58q0-30 26-30t26 30q0 34 33 58t94 43 67 23v-66q0-30-92-122-4-4-21-20t-22-21-18-19-18-22-12-20-9-23-2-23z"></path></symbol><symbol viewBox="0 0 840 1000" id="chart-pie"><path d="M368 80v368H0q18-146 121-249T368 80zm106 0q156 20 261 139t105 279q0 174-123 298T418 920q-160 0-278-105T0 552h424q20 0 35-14t15-36V80z"></path></symbol><symbol viewBox="0 0 920 1000" id="renren"><path d="M384 42v292q-2 150-77 274T110 792Q0 662 0 496q0-170 110-298T384 42zm76 570q42 174 222 288-102 56-222 56t-220-56q178-114 220-288zm76-280V42q164 28 274 156t110 298q0 168-108 296-124-60-200-184t-76-276z"></path></symbol><symbol viewBox="0 0 920 1000" id="up-circled"><path d="M460 960q-190 0-325-135T0 500q0-192 135-326T460 40t325 134 135 326q0 190-135 325T460 960zm0-820q-148 0-254 105T100 500q0 148 106 254t254 106q150 0 255-106t105-254q0-150-105-255T460 140zm-90 552V488H258l202-192 202 192H550v204H370z"></path></symbol><symbol viewBox="0 0 700 1000" id="menu"><path d="M650 450q22 0 36 15t14 35-15 35-35 15H50q-20 0-35-15T0 500t14-35 36-15h600zM50 350q-20 0-35-15T0 300t14-35 36-15h600q22 0 36 15t14 35-15 35-35 15H50zm600 300q22 0 36 15t14 35-15 35-35 15H50q-20 0-35-15T0 700t14-35 36-15h600z"></path></symbol><symbol viewBox="0 0 960 1000" id="vimeo-circled"><path d="M480 20q200 0 340 140t140 340q0 198-140 339T480 980q-198 0-339-141T0 500q0-200 141-340T480 20zm220 386q14-82-48-94-60-14-110 40-28 28-34 66 38-24 56 1t-2 63q-44 84-64 84-14 0-36-94-4-14-8-40t-8-45-12-39-20-29-30-5q-26 6-60 32t-56 50l-20 24 18 24q4-4 10-8t22-10 20 2q6 8 37 113t39 121q14 28 38 43t58-1q54-36 124-120t86-178z"></path></symbol><symbol viewBox="0 0 900 1000" id="sweden"><path d="M850 200q20 0 35 15t15 35v200H400V200h450zM0 750V550h300v250H40q-40 0-40-50zm400 50V550h500v200q0 22-14 36t-36 14H400zM0 250q0-50 40-50h260v250H0V250z"></path></symbol><symbol viewBox="0 0 980 1000" id="right-thin"><path d="M742 750V588H0V410h742V250l238 250z"></path></symbol><symbol viewBox="0 0 900 1000" id="book-open"><path d="M340 612v68l-200-80v-68zm0-208v68l-200-80v-68zM878 58q22 12 22 42v640q0 34-32 46L470 946q-8 2-10 2t-5 1-5 1-5-1-5-1l-10-2L32 786Q0 774 0 740V100q0-30 22-42 22-16 46-6l382 154L832 52q24-10 46 6zM400 846V286L80 158v560zm420-128V158L500 286v560zm-60-186v68l-200 80v-68zm0-208v68l-200 80v-68z"></path></symbol><symbol viewBox="0 0 940 1000" id="ccw"><path d="M532 114q170 0 289 120t119 290-119 290-289 120q-142 0-252-88l70-74q84 60 182 60 126 0 216-90t90-218-90-218-216-90q-124 0-214 87t-92 211h142L184 718 0 514h124q2-166 122-283t286-117z"></path></symbol><symbol viewBox="0 0 940 1000" id="cw"><path d="M408 90q168 0 287 116t123 282h122L756 694 572 488h144q-4-124-94-210t-214-86q-126 0-216 90t-90 218q0 126 90 216t216 90q104 0 182-60l70 76q-110 88-252 88-168 0-288-120T0 500t120-290T408 90z"></path></symbol><symbol viewBox="0 0 1000 1000" id="reply-all"><path d="M362 294L150 482l212 196v138L0 482l362-322v134zm250 58q104 0 182 50t115 122 60 144 27 122l4 50q-86-154-168-198t-220-44v218L250 482l362-322v192z"></path></symbol><symbol viewBox="0 0 700 1000" id="lamp"><path d="M209 960V856h282v104q-70 42-142 40-70 2-140-40zm276-164H215q0-72-36-140t-78-113-74-112T1 292Q9 172 95 86T349 0q170 0 255 86t95 206q4 60-16 113t-52 96-65 85-57 96-24 114zM107 300q-4 4 0 20t2 20 5 19 6 18 8 18 11 19 13 19 14 19 15 21 16 23q88 122 112 212h82q24-94 112-212 4-6 25-35t25-36 17-29 16-33 6-28 1-35q-16-196-244-196-226 0-242 196z"></path></symbol><symbol viewBox="0 0 900 1000" id="reply"><path d="M900 840q-86-152-208-197t-330-45v218L0 482l362-322v192q90 0 168 27t131 70 96 95 69 104 44 95 24 69z"></path></symbol><symbol viewBox="0 0 700 1000" id="record"><path d="M350 150q146 0 248 102t102 248q0 144-102 247T350 850 102 747 0 500q0-146 102-248t248-102z"></path></symbol><symbol viewBox="0 0 1000 1000" id="flight"><path d="M268 970l124-400H212L100 670H0l80-170L0 330h100l112 100h180L268 30h100l224 400h274l36 4 46 11 36 21 16 34q0 32-38 49t-74 19l-38 2H592L368 970H268z"></path></symbol><symbol viewBox="0 0 960 1000" id="gplus-circled"><path d="M434 364q8 30-1 57t-31 33h-10q-42 0-60-60-6-30 2-54 10-24 30-30 2-2 10-2 44 0 60 56zm46-344q200 0 340 140t140 340q0 198-140 339T480 980q-198 0-339-141T0 500q0-200 141-340T480 20zm-28 686q60-30 60-98 0-44-52-92-26-22-26-32 0-12 20-26 34-34 34-80 0-58-36-78 2-2 10-3t10-1q40-4 40-16v-4H396q-12 0-33 4t-53 32-32 76q0 56 38 80 22 16 56 16h6q-4 24 16 50h-2q-138 0-138 94 0 40 28 63t49 27 39 4h8q40 0 74-16zm254-208v-48h-76v-76h-48v76h-76v48h76v76h48v-76h76zm-314 58q32 0 52 17t22 43-19 44-55 20q-34 4-60-11t-28-41q0-26 22-48 20-20 58-24h8z"></path></symbol><symbol viewBox="0 0 920 1000" id="skype"><path d="M894 600q26 58 26 118 0 108-75 185t-179 77q-62 0-120-32-52 8-80 8-182 0-311-132T26 504q0-44 10-90Q0 354 0 280 0 172 74 96t180-76q74 0 136 40 32-8 76-8 182 0 310 132t128 320q0 46-10 96zM690 720q30-46 30-100 0-44-16-80-16-30-50-54-36-22-76-36-68-20-96-26-14-2-35-7t-27-7q-24-8-34-14-16-8-26-22-10-10-10-26 0-24 28-42 26-20 76-20t74 18q26 22 38 50 16 26 26 36 16 12 38 12 26 0 46-20 18-18 18-44 0-20-14-52-16-24-42-48-28-22-74-38-48-14-102-14-72 0-128 22-56 20-86 60t-30 92 28 90q34 40 76 56 48 22 116 36 12 2 29 7t30 8 21 5q28 10 46 28 18 14 18 42 0 34-32 56-36 24-90 24-40 0-64-12-26-14-36-28-24-44-26-46-8-24-24-40-20-14-40-14-28 0-46 18t-18 42q0 38 28 82 26 40 72 66 64 34 158 34 78 0 138-24 60-28 88-70z"></path></symbol><symbol viewBox="0 0 920 1000" id="info-circled"><path d="M454 40q190-2 326 130t140 322q2 190-131 327T466 960q-190 2-327-131T0 506q-4-190 130-327T454 40zm52 152q-42 0-65 24t-23 50q-2 28 15 44t49 16q38 0 61-22t23-54q0-58-60-58zM386 786q30 0 84-26t106-78l-18-24q-48 36-72 36-14 0-4-38l42-160q26-96-22-96-30 0-89 29t-115 75l16 26q52-34 74-34 12 0 0 34l-36 152q-26 104 34 104z"></path></symbol><symbol viewBox="0 0 1000 1000" id="export"><path d="M750 790v-56l100-82v188q0 20-15 35t-35 15H50q-20 0-35-15T0 840V290q0-22 14-36t36-14h288q-32 24-59 49t-39 39l-10 12H100v450h650zm-82-348q-166 0-242 41T266 664q0-8 1-22t9-56 22-79 44-83 70-79 107-56 149-23V110l332 250-332 260V442z"></path></symbol><symbol viewBox="0 0 940 1000" id="water"><path d="M168 6q10 86 50 155t73 123 33 112q0 66-48 113t-114 47-114-47T0 396q0-58 33-112t73-123T156 6q2-4 7-4t5 4zm616 0q10 86 50 155t73 123 33 112q0 66-48 113t-114 47-114-47-48-113q0-48 21-93t48-78 53-92T772 6q2-4 7-4t5 4zM464 450q2-4 7-4t5 4q10 86 50 155t73 123 33 112q0 66-48 113t-114 47-114-47-48-113q0-58 33-112t73-123 50-155z"></path></symbol><symbol viewBox="0 0 960 1000" id="lastfm-circled"><path d="M480 20q198 0 339 140t141 340q0 198-141 339T480 980q-200 0-340-141T0 500q0-200 140-340T480 20zm132 620q120 0 120-80 0-66-76-84l-38-8q-32-8-32-34 0-30 40-30 44 0 46 34l58-6q-6-74-100-74-102 0-102 84 0 60 66 76l40 8q40 10 40 36 0 32-62 32-76 0-100-74l-20-58q-18-58-45-81t-85-23q-54 0-95 40t-41 106q0 62 39 99t93 37 86-26l-18-50q-28 28-66 28-32 0-55-25t-23-65q0-50 25-73t57-23q34 0 49 18t27 56l18 58q32 102 154 102z"></path></symbol><symbol viewBox="0 0 800 1000" id="flattr"><path d="M180 426v210L0 816V402q0-302 278-302h442L408 410q-6 6-10 6-8 0-12-10V278q-98 0-112 2-94 16-94 146zm440-64l180-180v414q0 304-278 304H82l312-312q2-6 8-6 8 0 12 10v128q98 0 112-2 94-16 94-146V362z"></path></symbol><symbol viewBox="0 0 901 1000" id="alert"><path d="M885 616q20 16 16 33t-28 23l-78 22q-24 6-40 28t-14 48l4 82q2 24-14 34t-38 0l-86-44q-22-12-47-4t-35 30l-46 88q-12 22-29 23t-33-19l-50-78q-34-48-88-20l-122 70q-22 14-32 6t-2-32l54-164q8-24-4-44t-36-22L31 664q-24-4-29-18t15-30l86-76q20-16 20-41t-20-41l-86-76q-20-16-16-33t28-23l78-22q24-6 41-28t15-48l-6-82q0-26 15-36t37 0l80 38q24 10 49 2t37-30l46-80q12-22 30-21t30 23l50 86q12 22 35 29t45-7l136-84q22-14 30-6t0 32l-60 170q-10 22 2 41t38 21l114 12q26 2 30 16t-16 30l-86 76q-18 16-18 41t18 41zm-384 92V604H401v104h100zm0-160V288H401v260h100z"></path></symbol><symbol viewBox="0 0 580 1000" id="plus"><path d="M550 450q30 0 30 50t-30 50H340v210q0 30-50 30t-50-30V550H30q-30 0-30-50t30-50h210V240q0-30 50-30t50 30v210h210z"></path></symbol><symbol viewBox="0 0 1000 1000" id="download"><path d="M968 652q18 10 27 32t3 40l-28 154q-4 20-22 33t-40 13H92q-22 0-40-13t-22-33L2 724q-10-48 32-72l158-108h98L120 674h178q8 0 12 8l40 110h300l40-110q8-8 12-8h178L710 544h98zM760 330L500 574 240 330h166V74h190v256h164z"></path></symbol><symbol viewBox="0 0 1000 1000" id="chat"><path d="M290 610h350q2 0 6-2h4v92q0 40-29 70t-71 30H300L150 950V800h-50q-40 0-70-30T0 700V400q0-42 30-71t70-29h190v310zM900 50q42 0 71 29t29 71v300q0 40-29 70t-71 30h-50v150L700 550H350V150q0-42 30-71t70-29h450z"></path></symbol><symbol viewBox="0 0 220 1000" id="dot"><path d="M110 390q46 0 78 32t32 78q0 44-32 77t-78 33-78-33-32-77q0-46 32-78t78-32z"></path></symbol><symbol viewBox="0 0 884 1000" id="mute"><path d="M868 72q16 16 16 36t-16 36L86 926q-18 14-34 14-18 0-36-14-16-14-16-36t16-36L798 72q34-32 70 0zM652 458l50-50q74 92 101 172t-7 116q-24 24-75 57t-131 71-161 45-165-23l278-276q44 32 88 54t67 25 33-1q6-10 2-34t-26-68-54-88zm-276-62L106 666q-40-132 28-283t132-215q34-32 105-11t159 85l-52 50q-58-38-105-53t-57-5q-4 8-2 28t19 58 43 76z"></path></symbol><symbol viewBox="0 0 600 1000" id="to-start"><path d="M174 500q0-14 14-24l364-228q20-14 34-5t14 35v442q0 26-14 35t-34-5L188 522q-14-10-14-22zM0 266q0-58 76-58 74 0 74 58v466q0 58-74 58-76 0-76-58V266z"></path></symbol><symbol viewBox="0 0 400 1000" id="left-dir"><path d="M400 270v460L0 500z"></path></symbol><symbol viewBox="0 0 400 1000" id="right-dir"><path d="M0 270l400 230L0 730V270z"></path></symbol><symbol viewBox="0 0 960 1000" id="pinterest-circled"><path d="M480 20q200 0 340 140t140 340q0 198-140 339T480 980 140 839 0 500q0-200 140-340T480 20zm32 592q82 8 128-64t34-162q-10-72-74-110t-146-28q-66 8-117 56t-53 118q-4 100 70 116 10-24 9-33t-10-24-11-27q-14-96 78-144t158 18q48 48 20 148t-98 86q-40-8-33-54t24-86-21-60q-42-18-65 33t1 89q-4 20-21 83t-18 87 1 98q52-38 78-172 46 30 66 32z"></path></symbol><symbol viewBox="0 0 1000 1000" id="upload"><path d="M500 74l260 244H596v256H406V318H240zm468 578q18 10 27 32t3 40l-28 154q-4 20-22 33t-40 13H92q-22 0-40-13t-22-33L2 724q-10-48 32-72l158-108h98L120 674h178q8 0 12 8l40 110h300l40-110q8-8 12-8h178L710 544h98z"></path></symbol><symbol viewBox="0 0 913 1000" id="bucket"><path d="M522 70q174 0 286 49t104 105q-6 38-48 307t-44 281q-2 18-37 44t-107 50-154 24-153-24-106-50-37-44q0-2-4-30 82 6 163-35t139-117q28 0 48-20t20-50q0-28-20-49t-50-21q-28 0-49 21t-21 49q0 20 10 36-48 58-115 89t-131 27q-102-10-157-57T0 546q-8-122 156-184-18-94-22-138-8-56 104-105t284-49zM70 540q4 32 37 59t91 39l-32-204Q66 478 70 540zm452-212q82 0 157-18t113-39 38-35-38-35-112-39-158-18q-82 0-156 18t-112 39-38 35 38 35 112 39 156 18z"></path></symbol><symbol viewBox="0 0 780 1000" id="key"><path d="M774 238q20 116-28 215T596 570q-66 12-130 2L348 766l-70 12-104 166q-14 28-46 32l-76 14q-12 4-22-4t-12-22L2 866q-8-30 12-56l258-386q-24-50-38-120-18-106 53-187T472 16Q578-4 667 61t107 177zm-126 76q30-44 21-97t-51-83q-42-32-92-22t-80 54q-8 12-12 23t-1 20 5 16 13 17 18 15 22 16 23 17q6 4 22 16t23 16 19 12 19 8 17-1 18-8 16-19z"></path></symbol><symbol viewBox="0 0 860 1000" id="facebook-squared"><path d="M752 80q44 0 76 31t32 75v646q0 44-32 76t-76 32H590V630h114V496H590v-70q0-30 28-30h86V244h-96q-74 0-124 54t-50 132v66H330v134h104v310H108q-44 0-76-32T0 832V186q0-44 32-75t76-31h644z"></path></symbol><symbol viewBox="0 0 640 1000" id="flow-cascade"><path d="M520 730q50 0 85 35t35 85-35 85-85 35q-80 0-110-74H246q-88 0-131-54T72 724V260Q0 226 0 150q0-50 35-85t85-35 85 35 35 85q0 76-72 110v114q0 78 78 78h164q30-72 110-72 50 0 85 35t35 85-35 85-85 35q-80 0-110-74H246q-42 0-78-16v194q0 78 78 78h164q30-72 110-72zm0-300q-28 0-49 20t-21 50q0 28 21 48t49 20 49-20 21-48q0-30-21-50t-49-20zM50 150q0 28 21 48t49 20 49-20 21-48q0-30-21-50t-49-20-49 20-21 50zm470 768q28 0 49-20t21-48q0-30-21-50t-49-20-49 20-21 50q0 28 21 48t49 20z"></path></symbol><symbol viewBox="0 0 840 1000" id="cog"><path d="M760 500q0 72 80 122-12 40-34 82-70-18-136 44-54 58-34 136-40 20-84 36-46-82-132-82t-132 82q-44-16-84-36 20-80-34-136-54-54-136-34-14-26-34-82 82-52 82-132 0-72-82-124 20-56 34-82 74 18 136-44 54-56 34-136 42-22 84-34 46 80 132 80t132-80q42 12 84 34-20 78 34 136 66 62 136 44 22 42 34 82-80 50-80 124zM420 682q76 0 129-53t53-129-53-130-129-54-129 54-53 130 53 129 129 53z"></path></symbol><symbol viewBox="0 0 880 1000" id="star-empty"><path d="M880 396L618 592l94 348-272-208-272 208 94-348L0 396h320L440 60l120 336h320zM440 634l150 124-62-178 144-114-176 4-56-202-54 202-176-4 142 114-62 178z"></path></symbol><symbol viewBox="0 0 940 1000" id="ticket"><path d="M216 578l326-326 178 178-326 326zm710-244q14 14 14 36t-14 36L376 956q-16 16-36 16t-36-16l-76-76q12-20 12-48 0-42-29-72t-71-30q-22 0-50 14l-74-76Q0 652 0 632t16-36L566 46q14-14 36-14t36 14l74 76q-12 22-12 48 0 42 30 71t72 29q26 0 48-12zM394 836l406-406-258-258-408 406z"></path></symbol><symbol viewBox="0 0 800 1000" id="chart-bar"><path d="M750 50q22 0 36 15t14 35v850H600V100q0-50 40-50h110zM450 350q22 0 36 15t14 35v550H300V400q0-50 40-50h110zM150 650q22 0 36 15t14 35v250H0V700q0-50 40-50h110z"></path></symbol><symbol viewBox="0 0 940 1000" id="user"><path d="M736 722q204 72 204 122v106H0V844q0-50 204-122 94-34 128-69t34-95q0-22-22-49t-32-73q-2-12-9-18t-14-8-14-17-9-43q0-16 5-26t9-12l4-4q-8-50-12-88-4-54 41-112t157-58 158 58 40 112l-12 88q18 8 18 42-2 28-9 43t-14 17-14 8-9 18q-8 48-31 74t-23 48q0 60 35 95t127 69z"></path></symbol><symbol viewBox="0 0 580 1000" id="down-open"><path d="M564 428L330 652q-18 18-40 18t-40-18L16 428Q0 412 0 387t16-41q38-38 78 0l196 188 196-188q40-38 78 0 16 16 16 41t-16 41z"></path></symbol><symbol viewBox="0 0 859 1000" id="bag"><path d="M835 182q28 26 24 60l-98 648q-8 30-38 30H137q-28 0-40-30Q3 270 1 242q-5-34 22-60 6-6 54-43t56-43q18-16 56-16h480q38 0 56 16 78 58 110 86zM429 618q56 0 98-34t63-89 30-89 13-66h-92q-38 188-112 188T317 340h-92q46 278 204 278zM77 250h704L671 134H187z"></path></symbol><symbol viewBox="0 0 960 1000" id="dropbox"><path d="M286 44l194 158-284 184L0 222zm368 754q8 0 12-2l116-78v46L480 954 178 764v-46l118 78q4 2 12 2 10 0 14-4l158-132 160 132q4 4 14 4zm306-576L766 386 480 202 676 44zM480 564l286-178 174 140-282 184zM304 710L22 526l174-140 284 178z"></path></symbol><symbol viewBox="0 0 460 1000" id="info"><path d="M352 0q48 0 74 27t26 69q0 50-39 88t-95 38q-48 0-74-26t-24-72q0-46 35-85t97-39zM146 1000q-100 0-54-178l60-254q14-56 0-56-12 0-54 18t-72 38L0 524q90-78 189-126t151-48q78 0 36 162l-70 266q-16 64 6 64 44 0 118-60l30 40q-84 86-175 132t-139 46z"></path></symbol><symbol viewBox="0 0 960 1000" id="compass"><path d="M474 20q198-2 340 136t146 336q2 200-136 342T486 980q-198 2-341-137T0 506q-4-200 135-342T474 20zm12 858q156-2 266-114t108-270-115-267-269-107q-158 2-267 114T102 504t114 267 270 107zM252 724q4-26 12-66t41-128 77-132 125-76 141-42l60-10q-4 26-12 66t-41 128-77 132q-42 42-124 74t-142 42zm180-276q-22 20-22 48t22 50q20 22 49 22t49-22q52-52 88-186-136 36-186 88z"></path></symbol><symbol viewBox="0 0 1000 1000" id="progress-2"><path d="M1000 400v250q0 42-29 71t-71 29H100q-40 0-70-29T0 650V350q0-40 30-70t70-30h800q42 0 71 30t29 70v50zM900 650V350H100v300h800zm-750-50V402h200v198H150zm250 0V402h200v198H400z"></path></symbol><symbol viewBox="0 0 860 1000" id="rocket"><path d="M543 614q6 50 8 81t-8 59-13 40-35 32-45 26-70 31-85 37q-32 12-45-4t-3-44l40-110-130-132-106 40q-28 12-43-2t-3-46q12-30 31-79t27-65 22-45 25-36 29-20 41-13h52l71 6q10-14 29-39t77-85 118-104 145-75 165-19q8 0 14 6 4 4 6 14 10 82-18 168t-76 151-98 118-86 81zm50-296q22 22 54 22t54-22q22-24 22-56t-22-56q-22-22-54-22t-54 22q-22 24-22 56t22 56z"></path></symbol><symbol viewBox="0 0 1000 1000" id="briefcase"><path d="M456 524v100H0q8-226 10-292 4-108 100-108h160q16-26 37-67t23-45q14-26 23-32t37-6h222q26 0 36 7t22 31q18 32 60 112h160q96 0 100 108l10 292H546V524h-90zm-74-354l-28 54h292l-28-54q-14-26-42-26H424q-28 0-42 26zm164 604V674h430q-6 88-10 166-6 84-90 84H126q-90 0-90-84L26 674h430v100h90z"></path></symbol><symbol viewBox="0 0 960 1000" id="dribbble-circled"><path d="M494 498q-44 14-82 44t-55 51-25 35q-48-58-48-128v-4q106 0 200-28l14 28zm114-148q-32 42-100 68-26-48-70-110 14-4 42-4 72 0 128 46zM362 654q40-80 152-120 34 92 40 146-36 16-74 16-68 0-118-42zm104-222q-92 24-176 24 18-92 104-134 32 40 72 110zm90 92q12-2 38-2 30 0 80 10-16 82-82 128-6-56-36-136zM480 20q200 0 340 140t140 340q0 198-140 339T480 980q-198 0-339-141T0 500q0-200 141-340T480 20zm0 714q98 0 167-69t69-165q0-98-69-167t-167-69-166 69-68 167q0 96 68 165t166 69zm46-282q72-28 108-74 42 52 42 116-48-8-90-8-30 0-44 2-2-2-2-4 0-4-2-4-2-4-6-13t-6-15z"></path></symbol><symbol viewBox="0 0 1000 1000" id="cloud-thunder"><path d="M760 356q100 0 170 68t70 166-70 166-170 68H182q-74 0-128-52T0 648q0-74 53-126t129-52q2 0 10 1t10 1q-2-12-2-38 0-108 78-184t188-76q90 0 160 52t94 134q28-4 40-4zM568 572q14-16 14-30 0-20-30-32h-4q-26-14-38-16l50-116q6 0 6-20 0-14-8-18-16-10-34 8-2 2-30 32t-61 66-45 52q-12 18-12 30 0 22 30 30l4 2q8 4 38 16l-52 114-2 8q-2 8-2 14 0 10 8 18 18 10 34-10 100-100 134-148z"></path></symbol><symbol viewBox="0 0 980 1000" id="video"><path d="M980 250H880v100h100v100H880v100h100v100H880v100h100v60q0 16-12 28t-28 12H40q-16 0-28-12T0 810v-60h100V650H0V550h100V450H0V350h100V250H0v-60q0-18 12-29t28-11h900q16 0 28 11t12 29v60zM380 650l250-150-250-150v300z"></path></symbol><symbol viewBox="0 0 920 1000" id="dot-3"><path d="M110 390q46 0 78 32t32 78q0 44-32 77t-78 33-78-33-32-77q0-46 32-78t78-32zm350 0q46 0 78 32t32 78q0 44-33 77t-77 33-77-33-33-77q0-46 32-78t78-32zm350 0q46 0 78 32t32 78q0 44-32 77t-78 33-78-33-32-77q0-46 32-78t78-32z"></path></symbol><symbol viewBox="0 0 500 1000" id="up-thin"><path d="M500 248H338v742H162V248H0L250 10z"></path></symbol><symbol viewBox="0 0 1000 1000" id="soundcloud"><path d="M34 672q0 4-10 4-6 0-10-4L0 602l14-72q4-4 10-4 10 0 10 4l16 72zm102 38q0 8-12 8t-12-8l-12-108 12-166q0-8 12-8t12 8l14 166zm102-2q0 10-14 10t-14-8l-10-108 10-222q0-10 14-10t14 10l12 222zm102 0q0 10-16 10t-16-10l-8-106 8-224q0-10 16-10t16 10l10 224zm102-2q0 12-18 12-16 0-18-12l-6-104 6-256q4-14 18-14 18 0 18 14l8 256zm72 12q-14 0-14-14V308q0-10 12-14 36-14 84-14 88 0 153 58t73 142q24-10 50-10 52 0 90 37t38 87q0 52-38 89t-90 37z"></path></symbol><symbol viewBox="0 0 1000 1000" id="infinity"><path d="M796 280q84 0 144 53t60 167q0 112-60 166t-144 54q-78 0-157-40T500 574q-58 66-137 106t-157 40q-86 0-146-54T0 500q0-114 60-167t146-53q78 0 157 39t137 105q58-66 138-105t158-39zM206 632q60 0 127-37t113-95q-46-58-112-95t-128-37Q92 368 92 500t114 132zm590 0q114 0 114-132T796 368q-62 0-129 37t-111 95q44 58 111 95t129 37z"></path></symbol><symbol viewBox="0 0 240 1000" id="flow-line"><path d="M168 688q72 34 72 112 0 50-35 85t-85 35-85-35-35-85q0-78 72-112V310Q0 276 0 200q0-50 35-85t85-35 85 35 35 85q0 76-72 110v378zM52 200q0 28 20 48t48 20 49-20 21-48q0-30-21-50t-49-20-48 20-20 50zm68 668q28 0 49-20t21-48q0-30-21-50t-49-20-48 20-20 50q0 28 20 48t48 20z"></path></symbol><symbol viewBox="0 0 1000 1000" id="shuffle"><path d="M754 334q-54 0-105 32t-80 66-83 104q-48 62-75 94t-78 77-107 66-122 21H0V654h104q54 0 106-32t81-66 83-104q62-82 101-126t116-88 163-44h36V74l210 180-210 180V334h-36zm-484 88q-74-78-166-78H0V204h104q140 0 254 108-14 16-37 45t-27 33q-8 12-24 32zm520 242V564l210 180-210 180V804h-36q-140 0-260-116 46-58 72-92 0-2 6-9t8-11q84 88 174 88h36z"></path></symbol><symbol viewBox="0 0 464 1000" id="up-open-mini"><path d="M62 620q-26 22-50 0-24-24 0-50l196-190q26-26 48 0l196 190q24 26 0 50-24 22-50 0L232 462z"></path></symbol><symbol viewBox="0 0 1000 1000" id="camera"><path d="M500 400q64 0 107 44t43 106-44 106-106 44-106-44-44-106 44-106 106-44zm400-150q42 0 71 29t29 71v450q0 40-29 70t-71 30H100q-40 0-70-30T0 800V350q0-42 30-71t70-29h120q28 0 40-30l30-92q10-28 40-28h340q30 0 40 28l30 92q12 30 40 30h120zM500 800q104 0 177-73t73-177-73-177-177-73-177 73-73 177 73 177 177 73zm366-380q14 0 24-11t10-25-10-24-24-10q-36 0-36 34 0 16 11 26t25 10z"></path></symbol><symbol viewBox="0 0 960 1000" id="cc-share"><path d="M676 362q12 0 20 8t8 18v354q0 10-8 18t-20 8H416q-12 0-20-8t-8-18V638H284q-10 0-18-8t-8-20V258q0-12 6-18 4-6 18-10h264q10 0 18 8t8 20v104h104zm-264 0h108v-78H310v300h78V388q0-10 8-18 4-4 16-8zm238 354V414H440v302h210zM480 20q200 0 340 140t140 340q0 198-140 339T480 980q-198 0-339-141T0 500q0-200 141-340T480 20zm0 872q162 0 277-115t115-277q0-164-115-278T480 108 203 222 88 500q0 162 115 277t277 115z"></path></symbol><symbol viewBox="0 0 681 1000" id="cup"><path d="M340 90q152 0 249 41t91 87l-72 594q-2 14-34 36t-97 42-137 20-136-20-97-42-35-36L0 218q-4-28 36-57t121-50 183-21zm0 216q72 0 137-15t98-33 33-30-33-29-98-32-137-15-137 15-98 32-33 29 33 30 98 33 137 15z"></path></symbol><symbol viewBox="0 0 960 1000" id="block"><path d="M480 20q200 0 340 140t140 340q0 198-140 339T480 980q-198 0-339-141T0 500q0-200 141-340T480 20zm258 220zM116 500q0 132 82 230l514-514q-100-82-232-82-152 0-258 107T116 500zm106 258zm258 106q152 0 259-107t107-257q0-130-82-232L250 782q98 82 230 82z"></path></symbol><symbol viewBox="0 0 1000 1000" id="graduation-cap"><path d="M166 612l334 168 276-136q-4 22-8 47t-6 35-11 23-24 23-45 22q-40 18-80 41t-63 34-39 11-40-13-64-37-80-40q-72-32-103-69t-47-109zm810-246q24 14 24 33t-24 33l-78 44-308-102q-22-36-90-36-40 0-67 16t-27 40 27 40 67 16q26 0 36-4l292 68-268 152q-60 32-120 0L24 432Q0 418 0 399t24-33l416-234q60-32 120 0zM848 808q18-116 13-182t-19-90l-14-22 70-38q6 8 12 28t17 101-7 197q-4 26-22 30t-35-5-15-19z"></path></symbol><symbol viewBox="0 0 960 1000" id="flickr-circled"><path d="M480 20q200 0 340 140t140 340q0 198-140 339T480 980q-198 0-339-141T0 500q0-200 141-340T480 20zM352 600q40 0 70-30t30-70q0-42-30-72t-70-30-70 30-30 72q0 40 30 70t70 30zm256 0q42 0 71-30t29-70q0-42-29-72t-71-30q-40 0-69 30t-29 72q0 40 29 70t69 30z"></path></symbol><symbol viewBox="0 0 900 1000" id="box"><path d="M870 100q12 0 21 9t9 21v120H0V130q0-12 9-21t21-9h840zM50 830V300h800v530q0 30-21 50t-49 20H120q-28 0-49-20t-21-50zm250-430v100h300V400H300z"></path></symbol><symbol viewBox="0 0 580 1000" id="minus"><path d="M550 450q30 0 30 50t-30 50H30q-30 0-30-50t30-50h520z"></path></symbol><symbol viewBox="0 0 920 1000" id="twitter"><path d="M920 214q-36 54-94 98v24q0 130-60 250T580 789t-290 83q-160 0-290-84 14 2 46 2 132 0 234-80-62-2-110-38t-66-94q10 4 34 4 26 0 50-6-66-14-108-66T38 390v-2q36 20 84 24-84-58-84-158 0-48 26-94 154 188 390 196-6-18-6-42 0-78 55-133t135-55q82 0 136 58 60-12 120-44-20 66-82 104 56-8 108-30z"></path></symbol><symbol viewBox="0 0 900 1000" id="linkedin"><path d="M204 152q0 40-29 68t-75 28q-44 0-72-28T0 152q0-42 28-69t74-27 73 27 29 69zM6 942V324h192v618H6zm306-420q0-86-4-198h166l10 86h4q60-100 190-100 100 0 161 67t61 199v366H708V600q0-134-98-134-70 0-98 72-6 12-6 48v356H312V522z"></path></symbol><symbol viewBox="0 0 582 1000" id="note"><path d="M381 30q0 42 46 97t90 100 61 119-39 154q-20 34-26 16-2-6 0-16 10-18 6-56t-13-78-43-73-82-41v536q2 48-37 95t-105 71q-74 28-143 8T7 886t20-115 116-85q86-30 158-4V30h80z"></path></symbol><symbol viewBox="0 0 960 1000" id="cc-nd"><path d="M306 468v-82h348v82H306zm0 154v-82h348v82H306zM480 20q200 0 340 140t140 340q0 198-140 339T480 980q-198 0-339-141T0 500q0-200 141-340T480 20zm0 872q162 0 277-115t115-277q0-164-115-278T480 108 203 222 88 500q0 162 115 277t277 115z"></path></symbol><symbol viewBox="0 0 960 1000" id="cc-by"><path d="M480 324q-66 0-66-68t66-68q68 0 68 68t-68 68zm98 26q14 0 22 8 10 10 10 22v196h-56v234H406V576h-56V380q0-12 10-22 8-8 22-8h196zM480 20q200 0 340 140t140 340q0 198-140 339T480 980q-198 0-339-141T0 500q0-200 141-340T480 20zm0 872q162 0 277-115t115-277q0-164-115-278T480 108 203 222 88 500q0 162 115 277t277 115z"></path></symbol><symbol viewBox="0 0 778 1000" id="pinterest"><path d="M320 660q-26 130-58 211t-96 129q-6-74-7-120t11-110 22-104 26-99 24-99q-24-52-19-116t48-106 99-20q40 16 44 59t-13 95-32 103-4 90 63 49q68 14 121-38t74-131 11-163-54-128q-62-64-151-70t-163 33-120 117-32 170q4 22 22 52t21 47-17 67Q-6 544 0 348q4-138 105-234T338 2q164-18 290 57t144 219q26 176-66 317T454 724q-22-2-42-9t-30-13-31-21-31-21z"></path></symbol><symbol viewBox="0 0 960 1000" id="spotify-circled"><path d="M480 20q198 0 339 140t141 340q0 120-56 224T752 894Q644 708 414 702q-176-6-296 114Q0 678 0 500q0-200 140-340T480 20zm234 650q14-26-10-40-188-114-460-54-30 8-22 36 8 30 36 22 246-58 416 46 26 14 40-10zm58-136q18-34-12-50-110-68-256-85t-276 21q-34 10-24 46 10 34 46 26 112-34 244-19t228 73q32 20 50-12zm4-142q38 24 62-14 20-38-16-62-126-74-314-89t-306 27q-18 4-27 21t-3 33q6 18 22 27t34 3q102-36 271-23t277 77zM412 846q130 4 186 118-60 16-118 16-126 0-234-62 66-74 166-72z"></path></symbol><symbol viewBox="0 0 1000 1000" id="upload-cloud"><path d="M760 356q100 0 170 68t70 166-70 166-170 68H570V634h106L500 404 326 634h104v190H182q-74 0-128-52T0 648q0-74 53-126t129-52q14 0 20 2-2-12-2-38 0-108 78-184t188-76q90 0 160 52t94 134q28-4 40-4z"></path></symbol><symbol viewBox="0 0 920 1000" id="help-circled"><path d="M454 40q190-2 326 130t140 322q2 190-131 327T466 960q-190 2-327-131T0 506q-4-190 130-327T454 40zm-2 740q30 0 49-19t19-47q2-30-17-49t-49-19h-2q-28 0-47 18t-21 46q0 30 19 49t47 21h2zm166-328q26-34 26-78 0-78-54-116-52-38-134-38-64 0-104 26-68 42-72 146v4h110v-4q0-26 16-54 16-24 54-24 40 0 52 20 16 20 16 44 0 18-16 40-8 12-20 20l-6 4q-6 4-16 11t-20 15-21 17-17 17q-14 20-18 78v8h108v-4q0-12 4-28 6-20 28-36l28-18q46-34 56-50z"></path></symbol><symbol viewBox="0 0 700 1000" id="light-down"><path d="M350 340q68 0 114 47t46 113q0 68-46 114t-114 46q-66 0-113-46t-47-114q0-66 47-113t113-47zm0 264q44 0 73-30t29-74q0-42-29-72t-73-30q-42 0-72 30t-30 72q0 44 30 74t72 30zM50 460q20 0 35 12t15 28q0 40-50 40T0 500q0-16 15-28t35-12zm546-204q28 28-8 64-14 14-33 16t-29-10q-12-12-10-31t16-33q36-34 64-6zm54 204q20 0 35 12t15 28q0 40-50 40-48 0-48-40 0-16 14-28t34-12zM350 750q16 0 28 15t12 35-12 35-28 15-28-15-12-35 12-35 28-15zm-238-62q36-36 64-8t-8 64q-14 14-33 16t-29-8q-30-28 6-64zm-10-430q28-28 64 8 14 14 16 33t-8 29q-30 28-64-6-36-36-8-64zm432 484q-34-36-6-64t64 8q14 14 16 33t-10 29q-30 28-64-6zM350 250q-16 0-28-15t-12-35 12-35 28-15 28 15 12 35-12 35-28 15z"></path></symbol><symbol viewBox="0 0 600 1000" id="to-end"><path d="M412 476q14 10 14 24 0 12-14 22L50 750q-22 14-36 5T0 720V278q0-26 14-35t36 5zm114-268q74 0 74 58v466q0 58-74 58-76 0-76-58V266q0-58 76-58z"></path></symbol><symbol viewBox="0 0 980 1000" id="signal"><path d="M490 700q42 0 71 30t29 70q0 42-29 71t-71 29q-40 0-69-29t-29-71q0-40 29-70t69-30zM280 588q88-88 210-88t210 88l-70 72q-58-58-140-58t-140 58zM140 448q146-148 351-148t349 148l-70 70Q654 400 491 400T210 518zM0 306q204-206 491-206t489 206l-70 70Q736 200 490 200T70 376z"></path></symbol><symbol viewBox="0 0 1000 1000" id="gauge"><path d="M406 672q34-56 214-284t194-220q12 6-96 278T580 772q-50 86-136 36t-38-136zm94-380q-168 0-284 127T100 730q0 30 2 46 2 22-12 37t-34 17-36-12-18-34q0-8-1-26t-1-28q0-226 145-382t355-156q72 0 134 18l-70 86q-40-4-64-4zm362 62q138 154 138 376 0 38-2 56-2 20-16 33t-34 13h-4q-22-4-35-20t-11-36q2-14 2-46 0-150-80-268 6-14 20-51t22-57z"></path></symbol><symbol viewBox="0 0 265 1000" id="left-open-mini"><path d="M252 670q26 26 0 48-26 26-48 0L12 524q-24-24 0-50l192-194q22-26 48 0 26 22 0 48L96 500z"></path></symbol><symbol viewBox="0 0 820 1000" id="magnet"><path d="M518 894l16-164 260 20-16 166q-4 28-32 24l-200-16q-28 0-28-30zM28 750l258-20 16 164q2 12-6 21t-22 9L76 940q-12 2-22-6t-10-18zM2 480q-2-12-2-34 0-160 120-273T410 60t290 113 120 273q0 22-2 34l-16 170-258-22 16-170v-12q0-58-44-99t-106-41-106 41-44 99v12l16 170-258 22z"></path></symbol><symbol viewBox="0 0 700 1000" id="doc-text-inv"><path d="M600 50q42 0 71 29t29 71v700q0 40-29 70t-71 30H100q-40 0-70-30T0 850V150q0-42 30-71t70-29h500zM140 258v88h420v-88H140zm420 480v-88H140v88h420zm0-196v-90H142v90h418z"></path></symbol><symbol viewBox="0 0 961 1000" id="traffic-cone"><path d="M480 604q-90 0-156-27t-70-65q44-124 56-158 10 28 59 46t111 18q64 0 112-18t58-46q12 34 56 158-4 38-70 65t-156 27zm0-334q-96 0-124-44l52-142q10-34 72-34t74 34q12 38 50 142-28 44-124 44zm440 384q40 16 41 41t-37 47L572 930q-38 22-91 22t-91-22L36 742q-38-20-36-46t42-42l188-76-22 60q0 48 80 82t192 34 192-34 82-82l-22-60z"></path></symbol><symbol viewBox="0 0 700 1000" id="lock-open"><path d="M640 400q20 0 40 20t20 40v390q0 20-14 39t-34 25l-60 20q-52 16-96 16H206q-46 0-98-16l-60-20q-20-6-34-25T0 850V460q0-22 15-41t35-19h400V260q0-110-100-110T250 260v40H150v-20q0-110 51-170t149-60q200 0 200 230v120h90z"></path></symbol><symbol viewBox="0 0 900 1000" id="forward"><path d="M540 598q-210 0-332 45T0 840q4-20 13-53t50-117 96-148 156-117 225-53V160l360 322-360 334V598z"></path></symbol><symbol viewBox="0 0 1000 1000" id="shareable"><path d="M340 500q0-68 47-114t113-46 113 46 47 114q0 66-47 113t-113 47-113-47-47-113zm-114-60q-14 60-66 60H0V380h118q40-124 145-202t237-78q164 0 284 116 16 18 16 43t-16 43q-18 16-43 16t-43-16q-78-82-198-82-100 0-176 62t-98 158zm614 60h160v120H882q-40 124-144 202t-238 78q-164 0-282-118-18-18-18-43t18-41q16-18 41-18t43 18q82 82 198 82 100 0 176-63t98-157q12-60 66-60z"></path></symbol><symbol viewBox="0 0 860 1000" id="instagram"><path d="M690 500q0-26-6-50h176v344q0 56-39 96t-95 40H134q-56 0-95-40T0 794V450h174q-4 32-4 50 0 106 76 183t184 77q106 0 183-77t77-183zm36-430q56 0 95 39t39 95v146H642q-78-110-212-110-138 0-212 110H0V204q0-56 39-95t95-39h592zm64 166v-72q0-24-24-24h-72q-24 0-24 24v72q0 8 7 16t17 8h72q24 0 24-24zM590 500q0 66-47 113t-113 47-113-47-47-113q0-68 47-114t113-46 113 46 47 114z"></path></symbol><symbol viewBox="0 0 1000 1000" id="vcard"><path d="M900 100q42 0 71 29t29 71v600q0 40-29 70t-71 30H100q-40 0-70-30T0 800V200q0-42 30-71t70-29h800zm0 700V200H100v600h800zM450 604v90H200v-90h250zm0-150v90H200v-90h250zm0-150v90H200v-90h250zm346 320l4 70H550q0-70 6-70 84-22 84-66 0-16-27-56t-27-88q0-110 90-110t90 110q0 48-28 88t-28 56q0 20 21 36t43 22z"></path></symbol><symbol viewBox="0 0 570 1000" id="dot-2"><path d="M110 390q46 0 78 32t32 78q0 44-32 77t-78 33-78-32-32-78 32-78 78-32zm350 0q46 0 78 32t32 78q0 44-33 77t-77 33q-46 0-78-32t-32-78 32-78 78-32z"></path></symbol><symbol viewBox="0 0 939 1000" id="attach"><path d="M244 990q-102 0-170-72Q2 848 0 752t84-190L580 66q80-80 174-54 44 12 79 47t47 79q26 96-54 176L352 788q-40 40-88 46-48 4-80-28-30-24-27-74t47-92l332-334q24-26 50 0t0 50L254 688q-44 44-20 70 12 8 24 6 24-4 46-26l474-474q50-50 34-108-16-60-76-76-54-14-108 36L134 610q-66 76-64 143t52 117q50 48 117 50t141-62l496-494q24-24 50 0 26 22 0 48L430 908q-82 82-186 82z"></path></symbol><symbol viewBox="0 0 960 1000" id="tag"><path d="M944 20q36 106-8 199T808 376l18 24q16 28 6 54l-48 158q-12 30-36 46L284 986q-42 30-64-4L10 678q-12-18-9-39t21-33l464-328q26-18 54-18h158q30 0 48 26l28 40Q942 196 888 40q-10-28 18-40 32-8 38 20zM728 488q40-32 34-80l-32 16q-8 4-12 4-18 0-28-18-12-30 16-40l24-14q-48-34-92 0-28 18-34 51t14 61q18 26 51 32t59-12z"></path></symbol><symbol viewBox="0 0 920 1000" id="network"><path d="M224 346q-22 0-42 10-48-52-92-128 54-74 128-118 92 38 152 82-6 16-6 32 0 6 4 22-62 48-116 104-16-4-28-4zm-98 98q0 34 20 60-60 114-80 232Q0 630 0 500q0-110 50-206 38 62 84 112-8 24-8 38zm336-318q-28 0-50 14-58-42-114-70 84-30 162-30 120 0 230 62-76 14-162 50-26-26-66-26zm146 460q-160-24-290-112 4-20 4-30 0-24-14-52 38-44 98-90 26 20 56 20 14 0 38-8 94 108 134 240-16 14-26 32zm128 132q38-14 54-60 58-4 108-18-46 146-166 232 6-48 6-98 0-10-1-28t-1-28zm-150-66q-190 96-304 272-90-36-158-110 12-144 80-274 6 2 20 2 30 0 52-14 142 98 310 124zm184-492q150 136 150 340 0 22-4 66-64 18-130 24-24-56-88-60-48-146-148-264 10-20 10-42v-10q100-42 210-54zM634 704q14 10 32 18 2 18 2 52 0 80-14 144-86 42-194 42-58 0-112-12 110-160 286-244z"></path></symbol><symbol viewBox="0 0 880 1000" id="fast-forward"><path d="M866 476q14 10 14 24t-14 22L494 770q-22 14-37 6t-15-36V258q0-28 15-36t37 6zm-454 0q14 10 14 24t-14 22L52 770q-20 14-36 6T0 740V258q0-28 16-36t36 6z"></path></symbol><symbol viewBox="0 0 465 1000" id="right-open-big"><path d="M13 870l358-370L13 128q-26-26 0-48 26-26 48 0l392 394q24 26 0 50L61 918q-22 26-48 0-26-22 0-48z"></path></symbol><symbol viewBox="0 0 360 1000" id="bookmark"><path d="M310 50q22 0 36 15t14 35v850L180 770 0 950V100q0-50 40-50h270z"></path></symbol><symbol viewBox="0 0 860 1000" id="megaphone"><path d="M792 350q58 138 67 258t-39 140q-28 12-61-3t-65-40-99-41-149-8q-28 4-42 19t-6 37q22 56 46 108 4 10 24 22t24 20q14 34-22 46-50 22-102 40-30 10-54-42-32-76-58-132-6-12-34-17t-46-31q-30 10-38 14-34 12-74-12t-54-60q-17-32-5-79t43-61q126-52 213-108t124-103 59-92 25-78 15-59 36-36q48-20 130 70t142 228zm-28 300q8-4 10-38t-11-98-41-128q-28-66-67-123t-67-84-36-23-10 42 10 105 40 133 68 119 68 76 36 19z"></path></symbol><symbol viewBox="0 0 667 1000" id="check"><path d="M249 850q-34 0-56-28L13 586q-16-24-12-52t26-46 51-14 47 28l118 154 296-474q16-24 43-30t53 8q24 16 30 43t-8 53L307 816q-20 32-56 32z"></path></symbol><symbol viewBox="0 0 500 1000" id="location"><path d="M250 100q104 0 177 73t73 177q0 106-62 243T312 816l-62 84q-10-12-27-35t-60-89-76-130-60-147T0 350q0-104 73-177t177-73zm0 388q56 0 96-40t40-96-40-95-96-39-95 39-39 95 39 96 95 40z"></path></symbol><symbol viewBox="0 0 940 1000" id="leaf"><path d="M236 204q182-106 506-66 168 22 196 50 4 6-2 10-76 40-130 109t-78 132-65 132-93 105q-138 96-382 4-66 76-114 176-12 24-47 7T2 824q44-100 129-193t176-153 176-106 141-68l54-20q-14 0-41 1t-104 14-148 38-162 84T62 562Q40 320 236 204z"></path></symbol><symbol viewBox="0 0 460 1000" id="down-dir"><path d="M460 300L230 700 0 300h460z"></path></symbol><symbol viewBox="0 0 960 1000" id="stumbleupon-circled"><path d="M480 20q198 0 339 140t141 340q0 198-141 339T480 980q-200 0-340-141T0 500q0-200 140-340T480 20zm0 368q26 0 26 26v30l34 18 52-18v-30q0-46-33-79t-79-33-80 33-34 79v160q0 26-26 26t-26-26v-68h-88v68q0 46 34 79t80 33 79-33 33-79V414q0-26 28-26zm252 186v-68h-86v68q0 26-26 26-28 0-28-26v-68l-52 16-34-16v68q0 46 33 79t81 33q46 0 79-33t33-79z"></path></symbol><symbol viewBox="0 0 940 1000" id="smashing"><path d="M418 564q150 58 160 142 8 60-56 84-22 10-50 10-56 0-110-20t-78-40l-26-18-74 170q64 32 136 56l-80 20q-28 6-52-9t-32-43L2 270q-6-28 9-53t43-31l186-44q-66 72-60 182 6 78 72 141t166 99zm520 164q8 28-8 53t-44 31l-136 34q42-58 44-136 4-88-54-164T554 428q-152-52-158-126-6-52 56-72 24-10 54-8 58 2 102 17t60 29l16 14 58-160q-80-42-176-60l134-32q28-6 52 9t32 43z"></path></symbol><symbol viewBox="0 0 1000 1000" id="progress-1"><path d="M1000 400v250q0 42-29 71t-71 29H100q-40 0-70-29T0 650V350q0-40 30-70t70-30h800q42 0 71 30t29 70v50zM900 650V350H100v300h800zm-750-50V402h200v198H150z"></path></symbol><symbol viewBox="0 0 760 1000" id="up-bold"><path d="M760 514H568v350H192V514H0l380-380z"></path></symbol><symbol viewBox="0 0 920 1000" id="cd"><path d="M460 40q190 0 325 135t135 325-135 325-325 135-325-135T0 500t135-325T460 40zm0 610q62 0 106-44t44-106q0-64-43-107t-107-43q-62 0-106 44t-44 106 44 106 106 44z"></path></symbol><symbol viewBox="0 0 1000 1000" id="credit-card"><path d="M900 150q42 0 71 30t29 70v500q0 42-29 71t-71 29H100q-40 0-70-29T0 750V250q0-40 30-70t70-30h800zm0 600V450H100v300h800zm0-450v-50H100v50h800zM200 556h30v30h-30v-30zm180 60h30v-30h30v-30h60v30h-30v30h-30v30h-60v-30zm120 30h-30v-30h30v30zm-150 0h-60v-30h60v30zm30-60v30h-30v-60h60v30h-30zm-120 30v30h-60v-30h30v-30h30v-30h60v30h-30v30h-30z"></path></symbol><symbol viewBox="0 0 640 1000" id="mic"><path d="M620 362q20 0 20 20v138q0 92-69 164t-201 84v132h130q20 0 20 20v60q0 20-20 20H140q-20 0-20-20v-60q0-20 20-20h130V768q-132-12-201-84T0 520V382q0-20 20-20h30q20 0 20 20v138q0 66 59 123t191 57 191-57 59-123V382q0-20 20-20h30zM320 600q-80 0-115-25t-35-55V362h300v158q0 30-35 55t-115 25zM470 80v212H170V80q0-30 35-55T320 0t115 25 35 55z"></path></symbol><symbol viewBox="0 0 981 1000" id="archive"><path d="M840 250v50H144v-50q0-22 13-35t25-15h608q6 0 14 1t22 14 14 35zM692 100q6 0 14 1t22 14 14 35H244q0-22 13-35t25-15h410zm248 200q34 32 38 46 6 18 0 54l-76 450q-4 22-20 35t-28 15H144q-52 0-60-50-6-26-39-223T6 400q-10-22-3-44t10-26 21-20l10-10 30-30v80h836v-80zM692 570V470h-70v80H362v-80h-68v100q0 50 48 50h300q22 0 35-12t13-24z"></path></symbol><symbol viewBox="0 0 1000 1000" id="users"><path d="M1000 940H776V790q0-54-30-81t-154-89q40-30 40-84 0-16-13-33t-19-51q-2-8-14-16t-14-42q0-24 12-30-6-34-8-60-4-38 23-78t95-40 96 40 24 78l-8 60q12 6 12 30-2 34-14 42t-14 16q-6 34-19 51t-13 33q0 42 21 66t77 48q112 46 130 80 6 8 9 61t5 101v48zM512 678q182 78 182 124v138H0V756q0-44 84-78 76-32 104-64t28-88q0-20-19-44t-25-68q-2-10-18-22t-20-56q0-14 3-23t7-13l4-2q-6-46-10-82-4-50 33-103t127-53 127 53 33 103l-10 82q14 8 14 38-4 44-20 56t-18 22q-6 44-25 68t-19 44q0 56 28 88t104 64z"></path></symbol><symbol viewBox="0 0 1000 1000" id="address"><path d="M426 50q20 0 20 20v860q0 20-20 20h-46q-20 0-20-20V490H184q-16 0-28-6-12-2-26-12L10 390q-10-6-10-16t10-16l120-82q14-10 26-12 8-4 28-4h176V70q0-20 20-20h46zm564 208q10 6 10 16t-10 16l-118 82q-22 12-26 12-14 6-28 6H516l-40-230h342q18 0 28 4t26 12z"></path></symbol><symbol viewBox="0 0 860 1000" id="direction"><path d="M848 82q8 8 11 16t-2 22-10 26-19 39-24 49q-54 112-147 286T500 812l-66 118-54-380L0 494q442-246 696-368 20-10 48-25t39-20 25-9 23-1 17 11zm-92 96L452 458l28 234z"></path></symbol><symbol viewBox="0 0 820 1000" id="moon"><path d="M524 612q106-106 125-252T596 90q52 26 96 72 128 128 128 309T692 780 382 908 72 780q-40-40-72-94 124 70 271 51t253-125z"></path></symbol><symbol viewBox="0 0 962 1000" id="attention"><path d="M957 874q10 16 0 34-10 16-30 16H35q-18 0-28-16-13-18-2-34L451 92q8-18 30-18t30 18zm-420-50V724H427v100h110zm0-174V350H427v300h110z"></path></symbol><symbol viewBox="0 0 1000 1000" id="switch"><path d="M700 258v140H200v90L0 328l200-170v100h500zm300 420L800 838v-90H300V608h500V508z"></path></symbol><symbol viewBox="0 0 730 1000" id="right-bold"><path d="M350 120l380 380-380 380V688H0V310h350V120z"></path></symbol><symbol viewBox="0 0 700 1000" id="music"><path d="M600 50q42 0 71 29t29 71v700q0 40-29 70t-71 30H100q-40 0-70-30T0 850V150q0-42 30-71t70-29h500zM490 526q32-44 23-92t-33-80-49-66-25-54h-60v368q-42-16-90 2-42 14-64 48t-12 64q12 32 53 45t85-1q88-30 88-98V400q36 6 55 32t18 52-3 42q-4 10 2 10 4 0 12-10z"></path></symbol><symbol viewBox="0 0 901 1000" id="install"><path d="M884 544q24 52 14 96l-34 184q-2 20-19 35t-39 15H94q-22 0-39-15t-19-35L2 640q-8-50 14-96l158-374q22-46 72-46h104l-20 204H196l254 210 256-210H570l-18-204h102q50 0 74 46zm-68 132q2-22-10-38t-34-16H128q-22 0-34 16t-10 38l14 74q2 22 19 37t37 15h592q22 0 39-15t19-37z"></path></symbol><symbol viewBox="0 0 1000 1000" id="eye"><path d="M500 220q92 0 177 25t141 62 99 77 63 71 20 45-20 44-63 71-99 78-141 62-177 25-177-25-141-62-99-78-63-71-20-44 20-45 63-71 99-77 141-62 177-25zm0 494q92 0 157-63t65-151q0-90-65-153t-157-63-157 63-65 153q0 88 65 151t157 63zm0-214q8 8 37 2t50-11 25 9q0 44-33 75t-79 31-78-31-32-75q0-46 32-77t78-31q14 0 10 23t-12 47 2 38z"></path></symbol><symbol viewBox="0 0 465 1000" id="left-open-big"><path d="M452 870q26 26 0 48-26 26-48 0L12 524q-24-24 0-50L404 80q22-26 48 0 26 22 0 48L94 500z"></path></symbol><symbol viewBox="0 0 530 1000" id="pause"><path d="M440 150q90 0 90 64v570q0 66-90 66t-90-66V214q0-64 90-64zm-350 0q90 0 90 64v570q0 66-90 66T0 784V214q0-64 90-64z"></path></symbol><symbol viewBox="0 0 1000 1000" id="behance"><path d="M404 464q56 0 85 40t31 80v40q0 56-20 96t-50 58-59 27-49 11H0V170h322q78 0 127 44t49 128q0 50-23 81t-47 37zM142 284v144h170q26 0 40-15t14-61q0-30-11-47t-23-19l-10-2H142zm172 416q74 0 74-84 0-40-16-62t-32-24l-18-2H142v172h172zm468-366q70 0 118 29t67 70 27 82 6 69l-2 30H678q0 54 27 82t55 28l26 2q46 0 71-17t27-33l2-18h108q0 82-53 124t-105 44l-54 2q-72 0-122-25t-72-62-33-73-11-60v-26q0-10 1-27t14-60 36-75 72-59 115-27zm98 194q0-4-1-11t-6-24-13-30-28-24-46-11q-42 0-70 25t-34 51l-6 24h204zm26-320v78H650v-78h256z"></path></symbol><symbol viewBox="0 0 880 1000" id="spotify"><path d="M440 60q182 0 311 129t129 311q0 110-51 205T690 862Q590 692 380 686q-162-6-272 104Q0 666 0 500q0-184 128-312T440 60zm214 596q16-22-8-38-172-106-422-48-26 8-20 32 6 26 32 22 228-54 382 40 22 14 36-8zm54-124q18-30-12-48-100-62-235-77t-251 19q-32 10-24 44 12 32 42 22 104-32 225-18t209 68q28 20 46-10zm4-130q34 20 56-14 20-34-14-56-116-68-288-82t-282 24q-14 4-22 19t-4 31q10 38 50 28 94-34 249-22t255 72zM376 816q120 6 172 110-64 14-108 14-114 0-214-56 58-72 150-68z"></path></symbol><symbol viewBox="0 0 500 1000" id="down-thin"><path d="M500 750L250 990 0 750h162V10h176v740h162z"></path></symbol><symbol viewBox="0 0 700 1000" id="database"><path d="M686 642q14-20 14 2v100q0 74-104 135t-246 61q-140 0-245-61T0 744V644q0-8 4-10t10 8q32 52 125 86t211 34 211-34 125-86zm2-254q8-16 12 0v116q0 68-102 114t-248 46q-144 0-247-46T0 504V388q0-20 14 0 30 46 124 75t212 29 212-29 126-75zM350 60q144 0 247 39t103 93v64q0 58-103 99t-247 41-247-41T0 256v-64q0-54 103-93t247-39z"></path></symbol><symbol viewBox="0 0 960 1000" id="skype-circled"><path d="M588 492q20 12 28 30 10 20 10 44 0 32-18 56-12 22-48 40-38 14-78 14-54 0-88-20-22-12-40-36-16-26-16-46 0-14 10-24 14-10 26-10 14 0 22 8 8 4 14 22 2 6 7 15t7 11q6 8 20 16 16 6 36 6 32 0 50-12 18-14 18-32 0-16-10-24-10-10-26-16-6-2-21-5t-23-5q-20-4-66-20-20-10-42-32-16-22-16-52 0-28 18-50 16-22 48-34 30-12 72-12 34 0 56 8 20 4 42 20 18 18 24 28 6 16 6 30t-10 24-24 10q-12 0-22-6-8-8-14-20-10-18-22-28-10-10-42-10-26 0-42 10-16 12-16 24 0 10 6 16 8 8 14 10 4 2 20 8 18 6 34 10 36 8 54 14 28 10 42 20zM480 20q200 0 340 140t140 340q0 198-140 339T480 980q-198 0-339-141T0 500q0-200 141-340T480 20zm116 748q58 0 100-43t42-103q0-34-16-66 6-28 6-54 0-104-72-178t-174-74q-28 0-42 2-34-22-74-22-60 0-102 43t-42 103q0 40 20 76-4 16-4 50 0 104 72 178t172 74q32 0 46-4 30 18 68 18z"></path></symbol><symbol viewBox="0 0 1000 1000" id="lastfm"><path d="M394 628l34 100q-64 52-168 52-106 0-183-73T0 508q0-130 80-209t188-79q112 0 167 45t91 159l36 116q48 146 202 146 120 0 120-60 0-54-78-72l-78-18q-134-34-134-152 0-88 58-126t146-38q184 0 198 146l-114 14q-8-70-90-70t-82 62q0 50 66 66l74 16q150 36 150 166 0 160-238 160-136 0-204-53T458 578l-36-116q-14-40-22-60t-25-43-42-33-61-10q-64 0-113 46t-49 142q0 80 46 130t110 50q60 0 128-56z"></path></symbol><symbol viewBox="0 0 600 1000" id="layout"><path d="M170 200q80 0 80 80v90q0 80-80 80H80q-80 0-80-80v-90q0-80 80-80h90zm350 0q80 0 80 80v90q0 80-80 80h-90q-80 0-80-80v-90q0-80 80-80h90zM170 550q80 0 80 80v90q0 80-80 80H80q-80 0-80-80v-90q0-80 80-80h90zm350 0q80 0 80 80v90q0 80-80 80h-90q-80 0-80-80v-90q0-80 80-80h90z"></path></symbol><symbol viewBox="0 0 341 1000" id="left-open"><path d="M242 224q14-16 39-16t41 16q38 36 0 80L136 500l186 194q38 44 0 80-16 16-40 16t-40-16L16 538Q0 522 0 500q0-24 16-40 206-214 226-236z"></path></symbol><symbol viewBox="0 0 1000 1000" id="progress-0"><path d="M1000 400v250q0 42-29 71t-71 29H100q-40 0-70-29T0 650V350q0-40 30-70t70-30h800q42 0 71 30t29 70v50zM900 650V350H100v300h800z"></path></symbol><symbol viewBox="0 0 960 1000" id="cc-nc-eu"><path d="M480 20q200 0 340 140t140 340q0 198-140 339T480 980q-198 0-339-141T0 500q0-200 141-340T480 20zM110 372q-22 62-22 128 0 162 115 277t277 115q110 0 201-55t143-149L578 580H404q10 36 26 56 38 40 104 40 46 0 92-20l18 90q-56 30-124 30-128 0-196-92-34-44-46-104h-52v-58h44v-14q0-4 1-12t1-12h-46v-56h10zm488 112l262 116q12-48 12-100 0-164-115-278T480 108q-102 0-189 48T150 286l158 70q8-14 28-38 72-82 184-82 70 0 122 24l-24 92q-40-20-88-20-64 0-100 44-10 10-16 28l56 24h136v56h-8z"></path></symbol><symbol viewBox="0 0 1000 1000" id="publish"><path d="M900 50q42 0 71 30t29 70v600q0 42-29 71t-71 29H702v-98h200V290H100v462h200v98H100q-40 0-70-29T0 750V150q0-40 30-70t70-30h800zM130 218q38 0 38-38 0-16-11-26t-27-10-27 11-11 25q0 16 11 27t27 11zm100 0q38 0 38-38 0-16-11-26t-27-10-27 11-11 25q0 16 11 27t27 11zm672-6v-62H300v62h602zM498 410l242 240H590v300H406V650H256z"></path></symbol><symbol viewBox="0 0 840 1000" id="plus-circled"><path d="M420 80q174 0 297 123t123 297-123 297-297 123-297-123T0 500t123-297T420 80zm52 470h200V448H472V246H370v202H168v102h202v202h102V550z"></path></symbol><symbol viewBox="0 0 800 1000" id="bell"><path d="M632 424q16 34 40 52t45 22 44 23 35 55q22 62-74 161T470 894q-164 58-297 45T18 864q-20-54 12-111t18-111Q-8 450 1 342t113-192q26-22 29-51t29-39q24-8 46 12t56 18q132-2 198 66t160 268zM446 828q88-32 159-85t100-91 25-50q-8-22-49-33t-124-1-187 48q-102 38-173 87t-94 84-17 53q4 12 50 22t134 4 176-38zm-62-174q8-2 21-7t17-7l2 2q14 40-17 83t-89 63q-96 36-152-14 78-68 218-120z"></path></symbol><symbol viewBox="0 0 500 1000" id="facebook"><path d="M500 206H358q-14 0-25 15t-11 37v102h178v148H322v442H152V508H0V360h152v-86q0-94 59-159t147-65h142v156z"></path></symbol><symbol viewBox="0 0 922 1000" id="qq"><path d="M812 650q30 22 38 53t-12 61Q728 918 540 951t-344-77q-24-16-38-30 76 24 148 25t128-18 101-43 80-57 53-52 28-35q20-30 53-33t63 19zm-612-30q14 32 1 61t-47 45q-32 16-64 7t-46-41q-80-172-14-352T268 80q24-10 44-16-84 76-123 170t-32 178 18 130 25 78zM502 40q190 18 312 164t106 336q-4 32-8 48-20-92-67-163t-98-109-110-63-92-32-57-9q-34-2-54-29t-16-63q4-38 26-60t58-20zM306 526q16-38 34-46v-6q0-12 8-24v-2q0-8 2-12 4-50 33-82t79-32q48 0 78 32t32 82q2 4 2 12v2q8 8 8 24v6q18 8 34 46 26 54 6 66-12 6-30-22-6 28-30 46 26 10 26 26 0 14-18 23t-44 9q-52 0-60-26h-8q-12 26-62 26-26 0-44-9t-18-23q0-16 26-26-24-20-30-46-18 28-28 22-22-10 4-66z"></path></symbol><symbol viewBox="0 0 960 1000" id="cc-sa"><path d="M478 246q114 0 180 74 66 72 66 186 0 110-68 184-74 74-180 74-80 0-142-50-58-48-70-138h120q6 86 106 86 50 0 82-42 30-44 30-118 0-76-28-116-30-40-82-40-96 0-108 86h36l-96 94-94-94h36q14-90 72-138t140-48zm2-226q200 0 340 140t140 340q0 198-140 339T480 980q-198 0-339-141T0 500q0-200 141-340T480 20zm0 872q162 0 277-115t115-277q0-164-115-278T480 108 203 222 88 500q0 162 115 277t277 115z"></path></symbol><symbol viewBox="0 0 640 1000" id="flow-branch"><path d="M640 200q0 80-74 110-6 58-28 101t-61 69-68 38-75 26q-42 14-63 22t-47 24-38 40-16 60q70 30 70 110 0 50-35 85t-85 35-85-35-35-85q0-78 72-112V310Q0 276 0 200q0-50 35-85t85-35 85 35 35 85q0 76-72 110v204q40-30 138-60 58-18 84-29t51-41 29-76q-70-32-70-108 0-50 35-85t85-35 85 35 35 85zm-588 0q0 28 20 48t48 20 49-20 21-48q0-30-21-50t-49-20-48 20-20 50zm68 668q28 0 49-20t21-48q0-30-21-50t-49-20-48 20-20 50q0 28 20 48t48 20zm400-600q28 0 49-20t21-48q0-30-21-50t-49-20-48 20-20 50q0 28 20 48t48 20z"></path></symbol><symbol viewBox="0 0 880 1000" id="fast-backward"><path d="M0 500q0-14 14-24l374-248q20-14 36-6t16 36v482q0 28-16 36t-36-6L14 522q-14-8-14-22zm454 0q0-14 14-24l360-248q20-14 36-6t16 36v482q0 28-16 36t-36-6L468 522q-14-8-14-22z"></path></symbol><symbol viewBox="0 0 998 1000" id="mixi"><path d="M477 862q-184 0-319-101T3 506q-22-170 108-308T447 34t366 77 182 273q14 118-35 244T795 853 525 970V862h-48zm306-220V366q0-34-10-52-8-18-30-38-16-12-44-20-28-6-56-6-44 0-74 16-24 12-42 30-10-16-36-32-30-14-70-14-66 0-110 38v-30h-88v384h92V406q0-4 4-20 4-10 16-26 10-14 26-20 20-10 40-10 18 0 30 6 8 4 16 10 4 8 8 20 4 16 4 28v248h90V406q0-36 22-54 22-22 62-22 20 0 32 6 10 2 16 12 8 8 8 18 4 20 4 28v248h90z"></path></symbol><symbol viewBox="0 0 900 1000" id="basket"><path d="M150 850q0-40 30-70t70-30q42 0 71 30t29 70q0 42-29 71t-71 29q-40 0-70-29t-30-71zm500 0q0-40 30-70t70-30q42 0 71 30t29 70q0 42-29 71t-71 29q-40 0-70-29t-30-71zM328 614q-36 10-34 23t44 13h562v76q0 20-20 20H226q-20 0-20-20v-76l-10-46-98-454H0V70q0-20 20-20h156q20 0 20 20v86h704v274q0 22-18 26z"></path></symbol><symbol viewBox="0 0 1000 1000" id="stumbleupon"><path d="M552 402v-60q0-22-15-37t-37-15q-20 0-36 15t-16 37v314q0 92-66 158t-158 66-158-66T0 656V524h172v132q0 20 16 36t36 16 36-16 16-36V342q0-92 66-157t158-65 158 65 66 157v60l-102 34zm278 122h170v132q0 92-66 158t-158 66-158-66-66-158V522l70 32 102-32v134q0 20 16 36t36 16q22 0 38-15t16-37V524z"></path></symbol><symbol viewBox="0 0 1000 1000" id="doc-landscape"><path d="M0 250q0-42 30-71t70-29h800q42 0 71 29t29 71v500q0 40-29 70t-71 30H100q-40 0-70-30T0 750V250zm900 0H100v500h800V250z"></path></symbol><symbol viewBox="0 0 698 1000" id="feather"><path d="M60 988q-6 20-26 8-18-8-16-34 4-100 50-226-100-154-52-316 10 32 32 78t44 80 32 30q8-4 0-83t-11-166 25-157q22-44 80-94t104-70q-24 46-33 94t-4 78 21 32q12 0 84-120T496 0q46-4 114 29t82 65q12 24 0 79t-40 83q-44 44-146 62t-114 24q-16 10 12 34 54 48 176 20-56 80-136 114t-132 38-54 10q-4 24 49 54t101 14q-30 56-63 84t-54 35-76 11-85 8z"></path></symbol><symbol viewBox="0 0 900 1000" id="db-shape"><path d="M450 50q276 0 363 88t87 362q0 276-87 363t-363 87q-274 0-362-87T0 500q0-274 88-362t362-88z"></path></symbol><symbol viewBox="0 0 820 1000" id="arrows-ccw"><path d="M186 710l116-116v292L26 870l88-86Q-2 662 0 494t120-288Q220 106 360 90l4 102q-100 16-172 88-88 88-90 213t84 217zm332-598l276 16-88 86q116 122 114 290T700 792q-96 98-240 118l-2-104q98-16 170-88 88-88 90-213t-84-217L520 404z"></path></symbol><symbol viewBox="0 0 920 1000" id="clock"><path d="M460 40q190 0 325 135t135 325-135 325-325 135-325-135T0 500t135-325T460 40zm0 820q150 0 255-106t105-254q0-150-105-255T460 140q-148 0-254 105T100 500q0 148 106 254t254 106zm36-620v244l150 150-50 50-170-170V240h70z"></path></symbol><symbol viewBox="0 0 960 1000" id="linkedin-circled"><path d="M480 20q200 0 340 140t140 340q0 198-140 339T480 980q-198 0-339-141T0 500q0-200 141-340T480 20zM362 698V386h-96v312h96zm-48-352q52 0 52-48t-52-48q-22 0-37 14t-15 34q0 48 52 48zm404 352V514q0-66-31-101t-81-35q-66 0-96 50h-2l-6-42h-84q2 28 2 100v212h98V518q0-18 4-24 12-38 50-38 48 0 48 68v174h98z"></path></symbol><symbol viewBox="0 0 1000 1000" id="retweet"><path d="M250 660h272l128 140H202q-42 0-71-30t-29-70V398H0l176-198 174 198H250v262zm650-60h100L826 800 650 600h102V340H478L350 200h450q40 0 70 29t30 71v300z"></path></symbol><symbol viewBox="0 0 860 1000" id="heart"><path d="M790 206q70 64 70 156t-70 158L430 850 70 520Q0 454 0 362t70-156q62-58 151-58t153 58l56 52 58-52q62-58 150-58t152 58z"></path></symbol><symbol viewBox="0 0 460 1000" id="up-dir"><path d="M0 700l230-400 230 400H0z"></path></symbol><symbol viewBox="0 0 920 1000" id="picasa"><path d="M250 90q10 12 158 144L12 596Q0 548 0 500q0-130 67-240T250 90zm400-10v278L322 62q64-22 138-22 98 0 190 40zm70 40q94 64 147 165t53 215q0 80-26 152H720V120zM34 670q12-12 66-60l102-92v362Q86 800 34 670zm238 250V722h590q-56 100-151 163t-209 75h-84q-84-10-146-40z"></path></symbol><symbol viewBox="0 0 962 1000" id="brush"><path d="M118 680q38-34 85-29t87 45q42 40 48 87t-30 83q-86 84-228 102-84 12-80-14 0-4 6-10 52-60 64-145t48-119zM958 34q26 26-148 248T518 620q-38 38-124 104-8 6-16-8-18-34-48-64-32-32-66-48-16-6-8-16 64-84 104-122 118-116 344-287T958 34z"></path></symbol><symbol viewBox="0 0 1000 1000" id="keyboard"><path d="M930 200q28 0 49 21t21 49v460q0 30-21 50t-49 20H70q-28 0-49-20T0 730V270q0-28 21-49t49-21h860zM550 300v100h100V300H550zm150 150H600v100h100V450zM400 300v100h100V300H400zm150 150H450v100h100V450zM250 300v100h100V300H250zm150 150H300v100h100V450zM100 300v100h100V300H100zm150 150H150v100h100V450zm-50 250V600H100v100h100zm550 0V600H250v100h500zm150 0V600H800v100h100zM750 550h100V450H750v100zm150-150V300H700v100h200z"></path></symbol><symbol viewBox="0 0 800 1000" id="link"><path d="M294 734q14-14 34-14t36 14q32 34 0 70l-42 40q-56 56-132 56-78 0-134-56T0 712q0-78 56-134l148-148q70-68 144-77t128 43q16 16 16 36t-16 36q-36 32-70 0-50-48-132 34L126 648q-26 26-26 64t26 62q26 26 63 26t63-26zm450-574q56 56 56 132 0 78-56 134L586 584q-74 72-150 72-62 0-112-50-14-14-14-34t14-36q14-14 35-14t35 14q50 48 122-24l158-156q28-28 28-64 0-38-28-62-24-26-56-31t-60 21l-50 50q-16 14-36 14t-34-14q-34-34 0-70l50-50q54-54 127-51t129 61z"></path></symbol><symbol viewBox="0 0 740 1000" id="note-beamed"><path d="M206 136L740 20v704q2 42-30 81t-86 59q-64 24-110 8t-62-64q-18-48 7-97t85-73q52-20 106-10V252l-354 82v490q0 42-32 81t-86 59q-64 22-109 7T8 908q-18-48 6-97t84-73q54-20 108-10V136z"></path></symbol><symbol viewBox="0 0 660 1000" id="down"><path d="M660 484L330 864 0 484h192V134h276v350h192z"></path></symbol><symbol viewBox="0 0 900 1000" id="home"><path d="M888 514q16 16 11 27t-27 11h-84v310q0 14-1 21t-8 13-23 6H552V592H348v310H154q-28 0-35-10t-7-30V552H28q-22 0-27-11t11-27l400-402q16-16 38-16t38 16z"></path></symbol><symbol viewBox="0 0 800 1000" id="phone"><path d="M461 560q162-162 118-206l-8-8q-30-30-41-48t-4-54 49-88q20-24 37-39t35-16 30-1 29 13 24 18 26 25 21 22q48 48-6 194T567 666Q417 816 272 871t-193 7q-2-2-23-22t-25-25-18-24-13-31 2-30 15-35 38-37q42-34 70-47t54-2 35 18 39 37q44 44 208-120z"></path></symbol><symbol viewBox="0 0 960 1000" id="vkontakte"><path d="M532 548q26 16 26 48 0 36-24 50-14 10-62 10h-52V540h58q38 0 54 8zm-22-100q-14 10-56 10h-34V356h26q50 0 60 6 24 14 24 42t-20 44zM792 20q70 0 119 49t49 119v622q0 70-49 120t-119 50H168q-70 0-119-50T0 810V188q0-70 49-119t119-49h624zM506 744q84 0 125-42t41-102q0-96-96-116v-2q68-22 68-102 0-50-35-79t-85-29H310v472h196z"></path></symbol><symbol viewBox="0 0 902 1000" id="drive"><path d="M884 546q26 44 14 96l-34 184q-2 20-19 35t-39 15H94q-20 0-38-15t-20-35L2 642q-8-52 14-96l158-374q22-46 72-46h408q50 0 74 46zm-68 132q2-22-10-38t-34-16H128q-22 0-34 16t-10 38l14 74q2 22 19 37t39 15h590q22 0 39-15t19-37z"></path></symbol><symbol viewBox="0 0 580 1000" id="help"><path d="M494 110q86 62 86 184 0 64-42 124-12 20-88 80l-46 30q-40 34-48 60-6 16-8 44 0 14-16 14H204q-16 0-16-12 4-98 28-124 16-22 48-48t56-42l24-14q22-16 34-34 28-44 28-70 0-40-26-78-28-36-92-36-68 0-94 44-28 42-28 92H0Q6 162 114 92q70-42 166-42 130 0 214 60zM278 746q44 0 73 30t27 74q-2 46-32 73t-74 25q-44 0-73-29t-27-75 32-73 74-25z"></path></symbol><symbol viewBox="0 0 860 1000" id="target"><path d="M430 70q178 0 304 126t126 304-126 304-304 126-304-126T0 500t126-304T430 70zm36 778q124-14 212-102t100-212H586v-70h192q-12-124-100-212T466 150v194h-70V150q-124 14-213 102T82 464h194v70H82q12 124 101 212t213 102V654h70v194z"></path></symbol><symbol viewBox="0 0 980 1000" id="palette"><path d="M857 228q72 48 101 110t20 104-35 48q-16 4-54-10t-80-10-80 46q-30 46-21 75t34 65 23 50q-2 26-36 63t-126 74-216 37q-186 0-291-101T1 534q8-118 104-235t216-151q290-84 536 80zM539 694q30 0 52-22t22-54-22-53-52-21q-32 0-54 21t-22 53 22 54 54 22z"></path></symbol><symbol viewBox="0 0 896 1000" id="volume"><path d="M896 670q0 34-24 57t-56 23H36q-22 0-31-5t-3-15 24-20l802-452q28-18 48-7t20 45v374z"></path></symbol><symbol viewBox="0 0 901 1000" id="vimeo"><path d="M896 292q-32 186-171 351T480 880q-42 28-81 17t-66-38-43-61q-16-32-78-239t-74-223q-16-12-38-5t-44 21l-20 14-36-50q18-20 46-52t100-89 124-67q30-6 53 7t36 35 23 60 15 70 12 75 13 67q14 54 21 80t17 54 18 39 18 11q40 0 126-166 42-76 6-124t-112-2q22-126 140-188 104-54 182-8 80 46 58 174z"></path></symbol><symbol viewBox="0 0 1002 1000" id="erase"><path d="M902 150q42 0 71 29t29 71v500q0 40-29 70t-71 30H424q-38 0-70-28L14 526q-28-26 0-54l340-296q30-26 70-26h478zM762 700l72-74-128-126 128-128-72-72-128 126-128-126-72 72 128 128-128 126 72 74 128-128z"></path></symbol><symbol viewBox="0 0 900 1000" id="trophy"><path d="M510 716v66q70 8 116 32t46 56q0 36-65 63t-157 27q-90 0-156-27t-66-63q0-32 46-56t118-32v-66q0-50-33-84t-113-88q-56-36-87-61t-75-72-64-108T0 166q0-14 11-24t25-10h172q48-92 242-92 196 0 244 92h170q14 0 25 10t11 24q0 76-20 137t-64 108-75 72-87 61q-78 52-111 87t-33 85zm138-252q80-56 126-114t54-148H702q-6 158-54 262zM450 100q-62 0-108 15t-64 32-18 29q0 14 18 31t64 32 108 15 108-15 64-32 18-31q0-12-18-29t-64-32-108-15zM72 202q8 90 54 148t126 114q-48-104-54-262H72z"></path></symbol><symbol viewBox="0 0 1000 1000" id="picture"><path d="M856 332H756L632 182 418 332H238q-52 0-90 39t-38 91v160L2 326q-10-38 22-52L704 26q36-10 50 24zm106 90q16 0 27 12t11 28v472q0 16-11 28t-27 12H238q-16 0-27-12t-11-28V462q0-16 11-28t27-12h724zm-56 452V712l-72-160-166 60-130 132-138-170-92 214v86h598z"></path></symbol><symbol viewBox="0 0 920 1000" id="google-circles"><path d="M556 40q152 0 258 106t106 256q0 142-96 247T588 764q-34 86-112 141t-172 55q-126 0-215-90T0 656q0-96 54-173t140-111q12-140 116-236t246-96zM304 858q118 0 174-100-104-22-179-97t-97-179q-100 56-100 174 0 84 59 143t143 59zm4-404q16 76 70 129t128 69q-2-80-60-138t-138-60zm300 198q88-18 145-88t57-162q0-106-75-180t-179-74q-90 0-161 58t-87 146q124 2 211 89t89 211zM104 254q-42 0-73-30T0 152q0-44 31-74t73-30q44 0 74 30t30 74q0 42-30 72t-74 30zm0-160q-24 0-40 17t-16 41q0 22 16 39t40 17 41-17 17-39q0-24-17-41t-41-17z"></path></symbol><symbol viewBox="0 0 700 1000" id="lock"><path d="M640 374q20 0 40 19t20 41v390q0 48-48 66l-60 18q-42 16-96 16H206q-56 0-98-16l-60-18Q0 872 0 824V434q0-22 15-41t35-19h100v-70q0-110 51-170t149-60 149 60 51 170v70h90zm-390-90v90h200v-90q0-52-27-81t-73-29-73 29-27 81z"></path></symbol><symbol viewBox="0 0 980 1000" id="print"><path d="M66 324q-26 0-22-22 4-10 12-14 2 0 49-17t93-32 58-15h44V74h380v150h46q12 0 57 15t92 32 49 17q18 8 12 26-4 10-20 10H66zm860 56q20 0 37 19t17 41v174q0 22-17 41t-37 19H826l44 250H110l44-250H56q-20 0-38-19T0 614V440q0-22 18-41t38-19h870zM210 824h560l-70-324H280z"></path></symbol><symbol viewBox="0 0 762 1000" id="quote"><path d="M146 170q146 0 184 146 38 140-40 302-80 168-224 204-32 8-66 8v-70q112 0 182-108 54-86 26-146-16-36-62-36-60 0-103-44T0 320t43-106 103-44zm420 0q146 0 184 146 38 140-40 302-80 168-224 204-32 8-66 8v-70q112 0 182-108 54-86 26-146-16-36-62-36-60 0-103-44t-43-106 43-106 103-44z"></path></symbol><symbol viewBox="0 0 580 1000" id="mobile"><path d="M480 10q42 0 71 29t29 71v780q0 40-29 70t-71 30H100q-40 0-70-30T0 890V110q0-42 30-71t70-29h380zM290 950q30 0 50-15t20-35q0-22-20-36t-50-14q-28 0-49 15t-21 35 21 35 49 15zm210-150V140H80v660h420z"></path></symbol><symbol viewBox="0 0 800 1000" id="minus-squared"><path d="M700 100q42 0 71 29t29 71v600q0 40-29 70t-71 30H100q-40 0-70-30T0 800V200q0-42 30-71t70-29h600zm-50 450V450H150v100h500z"></path></symbol><symbol viewBox="0 0 850 1000" id="level-up"><path d="M200 500v90L0 430l200-170v100h550q40 0 70 29t30 71v280H710V500H200z"></path></symbol><symbol viewBox="0 0 400 1000" id="flash"><path d="M40 950q-4-4 35-94t79-182 38-98-94-45-98-55q-4-12 84-120t180-209 96-97q6 4-74 186t-78 186 95 43 97 57q4 20-174 227T40 950z"></path></symbol><symbol viewBox="0 0 896 1000" id="gplus"><path d="M48 278q0-58 25-102t56-65 69-34 56-15 26-2h230v4q0 22-78 36-28 0-38 6 40 20 54 56t14 96q0 102-68 158-38 38-38 54 0 18 50 64 104 90 104 178 0 140-116 194-68 34-150 34h-4l-4-2q-2 2-4 2-24 0-54-5t-75-21-74-57T0 754q0-60 32-101t83-57 88-22 71-6h2q-16-22-24-47t-8-39l2-14h-14q-64 0-110-30-74-44-74-160zm370 452q-4-52-43-84t-103-32h-16q-64 2-114 46-46 42-42 94t53 80 119 24q68-4 109-40t37-88zm-60-500q-30-108-122-108-12 0-20 2-40 12-58 62-16 50-2 106 14 52 47 85t71 33q12 0 18-2 42-12 63-65t3-113zm388 174h150v94H746v150h-94V498H502v-94h150V254h94v150z"></path></symbol><symbol viewBox="0 0 800 1000" id="plus-squared"><path d="M700 100q42 0 71 29t29 71v600q0 40-29 70t-71 30H100q-40 0-70-30T0 800V200q0-42 30-71t70-29h600zm-50 450V450H450V250H350v200H150v100h200v200h100V550h200z"></path></symbol><symbol viewBox="0 0 800 1000" id="thumbs-up"><path d="M582 370q2 6 58 13t108 24 52 47q0 72-61 284T632 950q-144 0-288-42t-144-88V478q0-14 15-34t46-45 53-41 62-43 46-31q50-34 104-100t85-104 41-26q48 76 29 137t-59 119-40 60zm-432 4q14 0 0 14-50 50-50 104v318q0 50 52 104 10 10-2 10-26 0-55-8t-62-45-33-99V530q0-62 33-100t63-47 54-9z"></path></symbol><symbol viewBox="0 0 900 1000" id="login"><path d="M800 50q42 0 71 29t29 71v700q0 40-29 70t-71 30H350q-40 0-69-30t-29-70V750h98v100h450V150H350v150h-98V150q0-42 29-71t69-29h450zM450 720V600H0V450h450V330l200 194z"></path></symbol><symbol viewBox="0 0 800 1000" id="comment"><path d="M700 150q42 0 71 29t29 71v350q0 40-29 70t-71 30H500v150L300 700H100q-40 0-70-30T0 600V250q0-42 30-71t70-29h600z"></path></symbol><symbol viewBox="0 0 1000 1000" id="progress-3"><path d="M1000 400v250q0 42-29 71t-71 29H100q-40 0-70-29T0 650V350q0-40 30-70t70-30h800q42 0 71 30t29 70v50zM900 650V350H100v300h800zm-750-50V402h200v198H150zm250 0V402h200v198H400zm250-198h200v198H650V402z"></path></symbol><symbol viewBox="0 0 900 1000" id="logout"><path d="M502 850V750h98v100q0 40-29 70t-71 30H100q-40 0-70-30T0 850V150q0-42 30-71t70-29h400q42 0 71 29t29 71v150h-98V150H100v700h402zm398-326L702 720V600H252V450h450V330z"></path></symbol><symbol viewBox="0 0 864 1000" id="up-open-big"><path d="M804 720L432 362 62 720q-26 22-50 0-24-24 0-50l396-390q26-26 48 0l396 390q24 26 0 50-26 22-48 0z"></path></symbol><symbol viewBox="0 0 1001 1000" id="language"><path d="M988 544q30 82-10 176T844 880q-10 0-12-2t-16-19-16-19q-2-6 2-10 86-60 117-152t-11-148q-16 38-39 76t-59 80-86 65-106 15q-52-6-84-41t-32-93q0-84 60-148 50-50 114-66l-2-100q-140 24-146 24-6 2-10-4 0-2-5-29t-5-31q-2-2 1-4t7-2l156-28q0-110-2-114 0-8 8-8 46 0 52-2 10 0 10 8v104q158-22 164-22 8-4 10 6 0 2 4 23t4 25q4 10-4 12l-176 30v102h12q86 0 148 36t86 100zM618 704q28 6 62-6l-4-214q-34 12-60 40-44 44-44 108 0 66 46 72zm122-28q28-24 58-68t45-79 7-41q-36-18-96-18-2 0-6 1t-6 1zM292 294q10 28 53 165t83 261 40 126q0 4-4 4h-86q-6 0-6-4l-50-166H146Q98 844 96 846q0 4-6 4H4q-4 0-4-4 10-18 176-552 2-8 10-8h96q10 0 10 8zM162 610h144l-72-264z"></path></symbol><symbol viewBox="0 0 1000 1000" id="light-up"><path d="M950 460q20 0 35 12t15 28q0 40-50 40h-48q-50 0-50-40 0-16 15-28t35-12h48zM500 226q114 0 195 80t81 194q0 116-81 196t-195 80-194-80-80-196q0-114 80-194t194-80zm0 474q82 0 141-58t59-142q0-82-59-141t-141-59-141 59-59 141q0 84 59 142t141 58zM150 500q0 40-50 40H50q-50 0-50-40 0-16 15-28t35-12h50q20 0 35 12t15 28zm350-350q-16 0-28-15t-12-35V50q0-20 12-35t28-15 28 15 12 35v50q0 20-12 35t-28 15zm0 700q16 0 28 15t12 35v50q0 20-12 35t-28 15-28-15-12-35v-50q0-20 12-35t28-15zm368-660l-34 34q-34 34-64 8-28-28 8-64 4-6 34-36 36-34 64-6t-8 64zM168 778q14-16 33-18t29 10q12 12 10 31t-16 33l-36 36q-14 14-33 16t-29-10q-30-28 6-64 6-4 36-34zm20-646l36 36q36 36 6 64-10 10-29 8t-33-16q-30-30-36-34-14-14-16-33t10-31q10-12 29-10t33 16zm590 702q-36-36-8-64t64 8l34 34q36 36 8 64t-64-6q-30-30-34-36z"></path></symbol><symbol viewBox="0 0 940 1000" id="back-in-time"><path d="M532 90q170 0 289 120t119 290-119 290-289 120q-138 0-252-88l70-76q82 60 182 60 126 0 216-90t90-216q0-128-90-218t-216-90q-124 0-213 86t-93 210h142L184 694 0 488h124q4-166 123-282T532 90zm-36 190h70v204l130 130-50 50-150-150V280z"></path></symbol><symbol viewBox="0 0 960 1000" id="cc-zero"><path d="M480 222q108 0 153 81t45 197q0 114-45 195t-153 81-153-81-45-195q0-116 45-197t153-81zm-86 278q0 18 4 66l106-194q14-24-6-42-12-4-18-4-86 0-86 174zm86 172q86 0 86-172 0-40-6-84L442 620q-22 30 12 46 2 2 6 2 2 0 2 2 2 0 8 1t10 1zm0-652q200 0 340 140t140 340q0 198-140 339T480 980q-198 0-339-141T0 500q0-200 141-340T480 20zm0 872q162 0 277-115t115-277q0-164-115-278T480 108 203 222 88 500q0 162 115 277t277 115z"></path></symbol><symbol viewBox="0 0 940 1000" id="flow-tree"><path d="M868 738q72 34 72 112 0 50-35 85t-85 35-85-35-35-85q0-78 72-112V624q0-78-76-78H596q-44 0-78-12v204q72 34 72 112 0 50-35 85t-85 35-85-35-35-85q0-78 72-112V534q-30 12-76 12H246q-34 0-53 19t-22 33-3 26v114q72 34 72 112 0 50-35 85t-85 35-85-35-35-85q0-78 72-112V624q0-64 43-118t131-54h100q76 0 76-52V260q-72-34-72-110 0-50 35-85t85-35 85 35 35 85q0 76-72 110v140q0 52 78 52h100q86 0 129 54t43 118v114zM190 850q0-30-21-50t-49-20-48 20-20 50q0 28 20 48t48 20 49-20 21-48zm212-700q0 28 20 48t48 20 49-20 21-48q0-30-21-50t-49-20-48 20-20 50zm138 700q0-30-21-50t-49-20-48 20-20 50q0 28 20 48t48 20 49-20 21-48zm280 68q28 0 49-20t21-48q0-30-21-50t-49-20-48 20-20 50q0 28 20 48t48 20z"></path></symbol><symbol viewBox="0 0 640 1000" id="flow-parallel"><path d="M240 200q0 76-72 110v378q72 34 72 112 0 50-35 85t-85 35-85-35-35-85q0-78 72-112V310Q0 276 0 200q0-50 35-85t85-35 85 35 35 85zm-50 600q0-30-21-50t-49-20-48 20-20 50q0 28 20 48t48 20 49-20 21-48zm-70-532q28 0 49-20t21-48q0-30-21-50t-49-20-48 20-20 50q0 28 20 48t48 20zm448 420q72 34 72 112 0 50-35 85t-85 35-85-35-35-85q0-78 72-112V310q-72-34-72-110 0-50 35-85t85-35 85 35 35 85q0 76-72 110v378zM452 200q0 28 20 48t48 20 49-20 21-48q0-30-21-50t-49-20-48 20-20 50zm68 668q28 0 49-20t21-48q0-30-21-50t-49-20-48 20-20 50q0 28 20 48t48 20z"></path></symbol><symbol viewBox="0 0 960 1000" id="rdio-circled"><path d="M480 20q198 0 339 140t141 340q0 198-141 339T480 980q-200 0-340-141T0 500q0-200 140-340T480 20zm170 454q52-16 72-60 12-22-4-22-72-4-156-58-2-2-6-4t-6-4v146q0 74-62 100-34 18-69 9t-49-41q-14-30 2-64t52-50q36-20 78-6V308q-22-6-46-6-80 0-137 58t-57 140q0 80 57 138t137 58 138-58 58-138q0-6-1-14t-1-12z"></path></symbol><symbol viewBox="0 0 960 1000" id="tumblr-circled"><path d="M480 20q200 0 340 140t140 340q0 198-140 339T480 980q-198 0-339-141T0 500q0-200 141-340T480 20zm130 686v-74q-36 24-70 24-16 0-36-10-12-8-14-18-6-12-6-52V458h110v-74H484V266h-64q-8 42-16 60-10 22-32 40t-46 26v66h50v162q0 28 8 48 6 16 24 32 14 14 40 24 32 8 56 8 28 0 52-6 28-6 54-20z"></path></symbol><symbol viewBox="0 0 840 1000" id="cancel-circled"><path d="M420 80q174 0 297 123t123 297-123 297-297 123-297-123T0 500t123-297T420 80zm86 420l154-154-86-86-154 152-152-152-88 86 154 154-154 152 88 86 152-152 154 152 86-86z"></path></symbol><symbol viewBox="0 0 859 1000" id="paypal"><path d="M771 240l8 4q38 22 60 62 20 38 20 96 0 130-110 210-106 80-306 80h-30q-16 0-32 12t-20 28l-36 156q-12 42-52 42H167q-18 0-28-13t-6-29l6-24h68q16 0 32-13t20-29l36-156q10-40 52-40h30q196 0 306-80 110-82 110-210 0-56-22-96zM191 756q-2 16-18 29t-32 13H33q-18 0-27-13t-5-29l150-646q10-40 52-40h224q78 0 126 8 56 12 94 34 36 24 58 62 20 38 20 96 0 130-110 210-106 80-304 80h-32q-16 0-32 12t-18 28zm88-374q-4 16 6 28t26 12h28q86 0 134-36 48-34 48-98 0-44-30-64-32-20-94-20h-34q-42 0-52 40z"></path></symbol><symbol viewBox="0 0 960 1000" id="github-circled"><path d="M480 496q16 0 42-2t41-2 32 4 29 14q26 26 26 60 0 64-43 84t-127 20-127-20-43-84q0-34 26-60 12-10 29-14t32-4 41 2 42 2zm-80 128q14 0 23-14t9-32q0-46-32-46t-32 46q0 18 9 32t23 14zm160 0q14 0 24-14t10-32q0-20-10-33t-24-13q-32 0-32 46 0 18 9 32t23 14zM480 20q200 0 340 140t140 340q0 198-140 339T480 980q-198 0-339-141T0 500q0-200 141-340T480 20zm44 676q188 0 188-184 0-56-38-98 4-4 1-41t-17-71q-44 6-114 52-20-6-64-6-40 0-64 6-30-20-59-33t-41-17l-14-2q-14 34-17 71t1 41q-38 42-38 98 0 184 188 184h88z"></path></symbol><symbol viewBox="0 0 789 1000" id="search"><path d="M772 772q30 34 6 62l-46 46q-36 32-68 0L474 690q-74 42-156 42-128 0-223-95T0 414t90-219 218-91 224 95 96 223q0 88-46 162zM94 414q0 88 68 156t156 68 151-63 63-153q0-88-68-155t-156-67-151 63-63 151z"></path></symbol><symbol viewBox="0 0 860 1000" id="heart-empty"><path d="M790 208q70 64 70 156t-70 156L430 850 70 520Q0 456 0 364t70-156q64-58 152-58t150 58l58 52 56-52q64-58 152-58t152 58zm-54 260q42-40 42-104 0-66-38-100-38-38-102-38-52 0-104 48l-104 92-106-92q-48-48-102-48-64 0-104 38-38 36-38 100 0 66 44 104l306 286z"></path></symbol><symbol viewBox="0 0 960 1000" id="cc-remix"><path d="M794 508l10 4v136l-10 4-116 50-4 2-6-2-252-104-8-4-124 52-124-54V470l116-48-2-2V284l130-56 294 122v118zM658 666v-86h-2v-2l-220-90v86l220 92v-2zm14-112l78-32-72-30-76 32zm102 74v-84l-86 36v84zM480 20q200 0 340 140t140 340q0 198-140 339T480 980q-198 0-339-141T0 500q0-200 141-340T480 20zm0 872q162 0 277-115t115-277q0-164-115-278T480 108 203 222 88 500q0 162 115 277t277 115z"></path></symbol><symbol viewBox="0 0 800 1000" id="floppy"><path d="M658 100l142 156v544q0 40-29 70t-71 30H100q-40 0-70-30T0 800V200q0-42 30-71t70-29h558zm-58 300V150H200v250q0 20 15 35t35 15h300q20 0 35-15t15-35zm-50-200v200H450V200h100z"></path></symbol><symbol viewBox="0 0 560 1000" id="droplet"><path d="M290 28q14 118 60 219t92 159 82 136 36 160q0 114-83 196t-197 82-197-82T0 702q0-82 36-160t82-136 92-159 60-219q2-8 11-8t9 8zm-42 392q2-4-2-14-6-6-14-6t-12 6l-40 58q-32 46-48 70t-34 75-18 101q0 24 17 41t41 17q58 0 58-68 0-94 42-246 2-6 5-17t5-17z"></path></symbol><symbol viewBox="0 0 1000 1000" id="monitor"><path d="M900 60q42 0 71 30t29 70v550q0 42-29 77t-69 43l-218 44 86 38q50 28-20 28H250q-98 0 32-52l36-14-220-44q-40-8-69-43T0 710V160q0-40 30-70t70-30h800zm0 646V150H100v556h800z"></path></symbol><symbol viewBox="0 0 580 1000" id="up-open"><path d="M564 570q16 16 16 41t-16 41q-38 38-78 0L290 464 94 652q-40 38-78 0-16-16-16-41t16-41l234-224q16-16 40-16t40 16z"></path></symbol><symbol viewBox="0 0 920 1000" id="left-circled"><path d="M920 500q0 190-135 325T460 960 135 825 0 500q0-192 135-326T460 40t325 134 135 326zm-820 0q0 148 106 254t254 106 254-106 106-254q0-150-106-255T460 140 206 245 100 500zm552 90H448v112L258 500l190-204v114h204v180z"></path></symbol><symbol viewBox="0 0 800 1000" id="cancel-squared"><path d="M700 100q42 0 71 29t29 71v600q0 40-29 70t-71 30H100q-40 0-70-30T0 800V200q0-42 30-71t70-29h600zM554 738l86-86-154-152 154-154-86-86-154 152-152-152-88 86 154 154-154 152 88 86 152-152z"></path></symbol><symbol viewBox="0 0 1000 1000" id="code"><path d="M380 214q16 14 16 32t-16 30L134 500l246 226q16 12 16 30t-16 32q-30 30-60 0L0 500l320-286q30-30 60 0zm302 0l318 286-318 288q-32 30-62 0-32-32 0-62l248-226-248-224q-32-30 0-62 30-30 62 0z"></path></symbol><symbol viewBox="0 0 921 1000" id="paper-plane"><path d="M894 130q14-4 22 3t4 19q-2 6-72 310t-74 316q-2 14-14 19t-24-1L488 662l-30-16 22-26q388-420 394-426 4-4-1-9t-9-1L314 586l-112-44-190-76q-12-4-12-12t12-12q8-4 441-157t441-155zM312 858V654l160 82Q342 852 330 864q-18 14-18-6z"></path></symbol><symbol viewBox="0 0 900 1000" id="resize-small"><path d="M156 704L50 604h296v296L246 794 100 950 0 850zm744-554L746 294l104 100H556V100l100 104L800 50z"></path></symbol><symbol viewBox="0 0 760 1000" id="rss"><path d="M0 120q314 0 537 223t223 537H642q0-266-188-453T0 240V120zm0 238q218 0 371 153t153 369H406q0-166-119-285T0 476V358zm114 296q46 0 80 33t34 81q0 46-34 79t-80 33-80-33-34-79q0-48 34-81t80-33z"></path></symbol><symbol viewBox="0 0 460 1000" id="arrow-combo"><path d="M230 0l230 364H0zm0 1000L0 634h460z"></path></symbol><symbol viewBox="0 0 900 1000" id="flag"><path d="M874 234q14-6 22 1t0 19q-96 138-164 213t-110 90-73 2-60-37-63-40-93 4-139 86l90 352H184L0 204l92-34q90-66 152-86t98-3 64 51 62 71 79 62 129 20 198-51z"></path></symbol><symbol viewBox="0 0 1001 1000" id="docs"><path d="M970 370q38 10 30 46L850 972q-4 16-18 23t-30 3L396 888q-16-4-24-18t-4-28l24-92-180 48q-40 10-50-26L2 170q-10-36 28-48L484 0q16-4 30 3t18 23l66 244zM82 180l144 542 392-106L474 76zm702 742l132-492-298-82 76 282q10 34-28 46l-196 52-26 102z"></path></symbol><symbol viewBox="0 0 265 1000" id="right-open-mini"><path d="M13 670l158-170L13 328q-26-26 0-48 26-26 48 0l192 194q24 26 0 50L61 718q-22 26-48 0-26-22 0-48z"></path></symbol><symbol viewBox="0 0 700 1000" id="doc"><path d="M600 50q42 0 71 29t29 71v700q0 40-29 70t-71 30H100q-40 0-70-30T0 850V150q0-42 30-71t70-29h500zm0 800V150H100v700h500z"></path></symbol><symbol viewBox="0 0 730 1000" id="left"><path d="M378 830L0 500l378-330v190h352v278H378v192z"></path></symbol><symbol viewBox="0 0 960 1000" id="globe"><path d="M480 20q200 0 340 141t140 339q0 200-140 340T480 980q-198 0-339-140T0 500q0-198 141-339T480 20zm410 480q0-132-78-239T610 112q-18 24-16 32 4 38 18 51t30 7l32-12 20-2q22 24 0 47t-45 56-1 77q34 64 96 64 28 2 43 36t17 66q10 80-14 140-22 44 14 76 86-112 86-250zM424 96q-112 14-199 84T98 354q6 0 22 2t28 3 26 4 24 8 12 13q4 12-14 45t-18 61q0 30 38 56t38 46q0 28 8 68t8 44q0 12 36 54t52 42q10 0 11-22t-2-54-3-40q0-32 14-74 12-42 59-70t55-46q16-34 9-61t-17-43-34-28-41-17-37-9-22-4q-16-6-42-7t-36 3-27-11-17-29q0-10 15-27t35-37 28-30q8-14 17-21t22-16 27-21q4-4 25-17t27-23zm-72 794q66 20 128 20 128 0 226-68-26-44-118-34-24 2-65 17t-47 17q-74 16-76 16-12 2-26 14t-22 18z"></path></symbol><symbol viewBox="0 0 960 1000" id="cc"><path d="M474 20q198-2 340 136t146 336q2 200-136 342T486 980q-198 2-341-137T0 506q-4-200 135-342T474 20zm12 858q156-2 266-114t108-270-115-267-269-107q-158 2-267 114T102 504t114 267 270 107zM362 580q40 0 58-40l56 30q-20 36-50 52-32 20-70 20-62 0-100-38-38-36-38-104t38-106 96-38q86 0 124 66l-62 32q-10-20-24-28t-28-8q-60 0-60 82 0 38 14 58 18 22 46 22zm266 0q42 0 56-40l58 30q-18 32-50 52t-70 20q-64 0-100-38-38-36-38-104 0-64 38-106 38-38 98-38 84 0 120 66l-60 32q-10-20-24-28t-28-8q-62 0-62 82 0 36 16 58t46 22z"></path></symbol><symbol viewBox="0 0 840 1000" id="minus-circled"><path d="M420 80q174 0 297 123t123 297-123 297-297 123-297-123T0 500t123-297T420 80zm252 368H168v102h504V448z"></path></symbol><symbol viewBox="0 0 980 1000" id="chart-area"><path d="M964 118q16-22 16 4v768H16q-12 0-15-7t5-17l230-288q20-22 40-2l74 66q10 8 21 7t17-11l158-238q16-26 38-4l112 104q20 20 38-4z"></path></symbol><symbol viewBox="0 0 800 1000" id="share"><path d="M650 650q62 0 106 43t44 107q0 62-44 106t-106 44-106-44-44-106q0-6 1-14t1-12L242 618q-42 32-92 32-62 0-106-44T0 500t44-106 106-44q54 0 92 30l260-156q0-4-1-12t-1-12q0-62 44-106t106-44 106 43 44 107q0 62-44 106t-106 44q-52 0-90-32L298 474q2 8 2 26 0 16-2 24l262 156q36-30 90-30z"></path></symbol><symbol viewBox="0 0 960 1000" id="cc-nc"><path d="M480 20q200 0 340 140t140 340q0 198-140 339T480 980q-198 0-339-141T0 500q0-200 141-340T480 20zM110 370q-22 62-22 130 0 162 115 277t277 115q110 0 202-56t142-148l-178-80q-8 46-46 74-38 30-86 34v74h-56v-74q-78 0-146-58l66-66q50 44 108 44 24 0 42-12t18-36q0-18-14-30l-46-20-56-26-76-32zm506 122l242 108q14-44 14-100 0-164-115-278T480 108q-102 0-188 48T152 286l182 82q12-36 46-62 32-22 78-24v-74h56v74q68 4 120 44l-62 64q-44-28-84-28-24 0-38 8-18 10-18 30 0 8 4 12l60 28 42 18z"></path></symbol><symbol viewBox="0 0 920 1000" id="right-circled"><path d="M0 500q0-190 135-325T460 40t325 135 135 325-135 325-325 135-325-135T0 500zm820 0q0-150-105-255T460 140q-148 0-254 105T100 500q0 148 106 254t254 106q150 0 255-106t105-254zm-552-90h204V296l190 204-190 202V590H268V410z"></path></symbol><symbol viewBox="0 0 960 1000" id="facebook-circled"><path d="M480 20q200 0 340 140t140 340q0 198-140 339T480 980 140 839 0 500q0-200 140-340T480 20zm114 330v-78h-72q-44 0-74 33t-30 81v44h-76v74h76v222h86V504h90v-74h-90v-52q0-28 18-28h72z"></path></symbol><symbol viewBox="0 0 905 1000" id="air"><path d="M85 316q-16 14-36 12t-34-18Q1 296 3 274t18-36q48-40 79-60t89-40 129-4 159 66 155 53 100-16 89-67q38-30 70 6 32 40-6 72-122 110-234 110-100 0-222-70-68-38-119-52t-93 0-65 29-67 51zm736 110q38-32 70 6 32 40-6 72-40 34-65 53t-72 38-97 19q-96 0-222-70-68-38-119-52t-93 0-65 29-67 51q-14 14-35 12t-35-18q-32-40 6-72 38-34 60-50t69-38 88-23 105 15 134 56q68 38 119 52t93 0 65-29 67-51zm0 256q38-32 70 6 14 14 12 36t-18 36q-40 34-65 53t-72 38-97 19q-96 0-222-70-68-38-119-52t-93-1-66 29-66 52q-14 14-35 12t-35-18q-32-40 6-72 38-34 60-50t69-38 88-23 105 15 134 56q68 38 119 52t93 0 65-29 67-51z"></path></symbol><symbol viewBox="0 0 730 1000" id="left-bold"><path d="M378 120v190h352v378H378v192L0 500z"></path></symbol><symbol viewBox="0 0 866 1000" id="down-open-big"><path d="M63 280l370 356 372-356q22-26 48 0 26 22 0 48L457 720q-22 22-48 0L13 328q-26-26 0-48 24-24 50 0z"></path></symbol><symbol viewBox="0 0 780 1000" id="pencil"><path d="M718 170q32 32 47 64t15 48v16L528 550 238 838 0 890l50-240 290-288 252-252q54-12 126 60zM224 810l24-24q-2-44-52-94-22-22-45-35t-35-13l-14-2-22 24-18 80q28 16 46 34 24 24 36 48z"></path></symbol></defs></svg>